<?xml version="1.0" encoding="UTF-8" standalone="no"?>
<!-- Created with Inkscape (http://www.inkscape.org/) -->

<svg
   version="1.1"
   id="svg1"
   width="489.50211"
   height="365.35684"
   viewBox="0 0 489.50211 365.35684"
   sodipodi:docname="count-links.svg"
   inkscape:version="1.3.2 (091e20ef0f, 2023-11-25)"
   xmlns:inkscape="http://www.inkscape.org/namespaces/inkscape"
   xmlns:sodipodi="http://sodipodi.sourceforge.net/DTD/sodipodi-0.dtd"
   xmlns="http://www.w3.org/2000/svg"
   xmlns:svg="http://www.w3.org/2000/svg">
  <defs
     id="defs1" />
  <sodipodi:namedview
     id="namedview1"
     pagecolor="#ffffff"
     bordercolor="#666666"
     borderopacity="1.0"
     inkscape:showpageshadow="2"
     inkscape:pageopacity="0.0"
     inkscape:pagecheckerboard="0"
     inkscape:deskcolor="#d1d1d1"
     showgrid="false"
     inkscape:zoom="2.7803762"
     inkscape:cx="222.99141"
     inkscape:cy="125.52258"
     inkscape:window-width="2158"
     inkscape:window-height="1408"
     inkscape:window-x="0"
     inkscape:window-y="30"
     inkscape:window-maximized="1"
     inkscape:current-layer="g36">
    <inkscape:page
       x="0"
       y="0"
       inkscape:label="1"
       id="page1"
       width="489.50211"
       height="365.35684"
       margin="0"
       bleed="0" />
  </sodipodi:namedview>
  <g
     id="g24"
     inkscape:label="groups-background [1-]"
     inkscape:groupmode="layer">
    <path
       id="path1"
       d="m 182.145,71.121 c 0,25.524 -17.829,46.215 -39.817,46.215 -21.992,0 -39.816,-20.691 -39.816,-46.215 0,-25.523 17.824,-46.215 39.816,-46.215 21.988,0 39.817,20.692 39.817,46.215 z"
       style="fill:#000000;fill-opacity:0.12;fill-rule:nonzero;stroke:none"
       transform="scale(1.3333333)" />
    <path
       id="path2"
       d="m 249.598,74.637 c 0,21.781 -8.868,39.437 -19.809,39.437 -10.937,0 -19.809,-17.656 -19.809,-39.437 0,-21.782 8.872,-39.438 19.809,-39.438 10.941,0 19.809,17.656 19.809,39.438 z"
       style="fill:#000000;fill-opacity:0.12;fill-rule:nonzero;stroke:none"
       transform="scale(1.3333333)" />
    <path
       id="path3"
       d="m 208.113,152.941 c 0,12.25 -9.933,22.18 -22.183,22.18 -12.25,0 -22.18,-9.93 -22.18,-22.18 0,-12.253 9.93,-22.183 22.18,-22.183 12.25,0 22.183,9.93 22.183,22.183 z"
       style="fill:#000000;fill-opacity:0.12;fill-rule:nonzero;stroke:none"
       transform="scale(1.3333333)" />
  </g>
  <g
     id="g40"
     inkscape:label="blue-dim [3]"
     style="opacity:1"
     inkscape:groupmode="layer">
    <path
       id="path37"
       d="M 116.555,69.246 149.887,43.617"
       style="fill:none;stroke:#2a2aff;stroke-width:1.125;stroke-linecap:butt;stroke-linejoin:miter;stroke-miterlimit:4;stroke-dasharray:none;stroke-opacity:0.2"
       transform="scale(1.3333333)" />
    <path
       id="path38"
       d="M 149.887,43.617 V 94.875"
       style="fill:none;stroke:#2a2aff;stroke-width:1.125;stroke-linecap:butt;stroke-linejoin:miter;stroke-miterlimit:4;stroke-dasharray:none;stroke-opacity:0.2"
       transform="scale(1.3333333)" />
    <path
       id="path39"
       d="M 149.887,94.875 116.555,69.246"
       style="fill:none;stroke:#2a2aff;stroke-width:1.125;stroke-linecap:butt;stroke-linejoin:miter;stroke-miterlimit:4;stroke-dasharray:none;stroke-opacity:0.2"
       transform="scale(1.3333333)" />
    <path
       id="path40"
       d="M 229.789,90.594 V 52.977"
       style="fill:none;stroke:#2a2aff;stroke-width:1.125;stroke-linecap:butt;stroke-linejoin:miter;stroke-miterlimit:4;stroke-dasharray:none;stroke-opacity:0.2"
       transform="scale(1.3333333)" />
  </g>
  <g
     id="g29"
     inkscape:label="blue [1-2]"
     style="display:inline"
     inkscape:groupmode="layer">
    <path
       id="path7"
       d="M 116.555,69.246 149.887,43.617"
       style="fill:none;stroke:#2a2aff;stroke-width:1.125;stroke-linecap:butt;stroke-linejoin:miter;stroke-miterlimit:4;stroke-dasharray:none;stroke-opacity:1"
       transform="scale(1.3333333)" />
    <path
       id="path8"
       d="M 149.887,43.617 V 94.875"
       style="fill:none;stroke:#2a2aff;stroke-width:1.125;stroke-linecap:butt;stroke-linejoin:miter;stroke-miterlimit:4;stroke-dasharray:none;stroke-opacity:1"
       transform="scale(1.3333333)" />
    <path
       id="path9"
       d="M 149.887,94.875 116.555,69.246"
       style="fill:none;stroke:#2a2aff;stroke-width:1.125;stroke-linecap:butt;stroke-linejoin:miter;stroke-miterlimit:4;stroke-dasharray:none;stroke-opacity:1"
       transform="scale(1.3333333)" />
    <path
       id="path10"
       d="M 229.789,90.594 V 52.977"
       style="fill:none;stroke:#2a2aff;stroke-width:1.125;stroke-linecap:butt;stroke-linejoin:miter;stroke-miterlimit:4;stroke-dasharray:none;stroke-opacity:1"
       transform="scale(1.3333333)" />
  </g>
  <g
     id="g36"
     style="display:inline;opacity:1"
     inkscape:label="red [1,3]"
     inkscape:groupmode="layer">
    <path
       id="path29"
       d="m 116.555,69.246 c 5.117,30.793 31.566,58.156 69.375,83.695 L 149.887,94.875"
       style="fill:none;stroke:#ff2a2a;stroke-width:1.125;stroke-linecap:butt;stroke-linejoin:miter;stroke-miterlimit:4;stroke-dasharray:none;stroke-opacity:1"
       transform="scale(1.3333333)" />
    <path
       id="path30"
       d="M 185.93,152.941 229.789,90.594"
       style="fill:none;stroke:#ff2a2a;stroke-width:1.125;stroke-linecap:butt;stroke-linejoin:miter;stroke-miterlimit:4;stroke-dasharray:none;stroke-opacity:1"
       transform="scale(1.3333333)" />
    <path
       id="path31"
       d="M 229.789,52.977 185.93,152.941 149.887,43.617"
       style="fill:none;stroke:#ff2a2a;stroke-width:1.125;stroke-linecap:butt;stroke-linejoin:miter;stroke-miterlimit:4;stroke-dasharray:none;stroke-opacity:1"
       transform="scale(1.3333333)" />
    <path
       id="path32"
       d="m 149.887,43.617 79.902,46.977"
       style="fill:none;stroke:#ff2a2a;stroke-width:1.125;stroke-linecap:butt;stroke-linejoin:miter;stroke-miterlimit:4;stroke-dasharray:none;stroke-opacity:1"
       transform="scale(1.3333333)" />
    <path
       id="path33"
       d="M 116.555,69.246 229.789,52.977"
       style="fill:none;stroke:#ff2a2a;stroke-width:1.125;stroke-linecap:butt;stroke-linejoin:miter;stroke-miterlimit:4;stroke-dasharray:none;stroke-opacity:1"
       transform="scale(1.3333333)" />
    <path
       id="path34"
       d="m 149.887,94.875 79.902,-4.281"
       style="fill:none;stroke:#ff2a2a;stroke-width:1.125;stroke-linecap:butt;stroke-linejoin:miter;stroke-miterlimit:4;stroke-dasharray:none;stroke-opacity:1"
       transform="scale(1.3333333)" />
    <path
       id="path35"
       d="m 149.887,43.617 79.902,9.36 -79.902,41.898"
       style="fill:none;stroke:#ff2a2a;stroke-width:1.125;stroke-linecap:butt;stroke-linejoin:miter;stroke-miterlimit:4;stroke-dasharray:none;stroke-opacity:1"
       transform="scale(1.3333333)" />
    <path
       id="path36"
       d="M 229.789,90.594 116.555,69.246"
       style="fill:none;stroke:#ff2a2a;stroke-width:1.125;stroke-linecap:butt;stroke-linejoin:miter;stroke-miterlimit:4;stroke-dasharray:none;stroke-opacity:1"
       transform="scale(1.3333333)" />
  </g>
  <g
     id="g28"
     style="display:inline;opacity:1"
     inkscape:label="red-dim [2]"
     inkscape:groupmode="layer">
    <path
       id="path4"
       d="m 116.555,69.246 c 5.117,30.793 31.566,58.156 69.375,83.695 L 149.887,94.875"
       style="fill:none;stroke:#ff2a2a;stroke-width:1.125;stroke-linecap:butt;stroke-linejoin:miter;stroke-miterlimit:4;stroke-dasharray:none;stroke-opacity:0.2"
       transform="scale(1.3333333)" />
    <path
       id="path5"
       d="M 185.93,152.941 229.789,90.594"
       style="fill:none;stroke:#ff2a2a;stroke-width:1.125;stroke-linecap:butt;stroke-linejoin:miter;stroke-miterlimit:4;stroke-dasharray:none;stroke-opacity:0.2"
       transform="scale(1.3333333)" />
    <path
       id="path6"
       d="M 229.789,52.977 185.93,152.941 149.887,43.617"
       style="fill:none;stroke:#ff2a2a;stroke-width:1.125;stroke-linecap:butt;stroke-linejoin:miter;stroke-miterlimit:4;stroke-dasharray:none;stroke-opacity:0.2"
       transform="scale(1.3333333)" />
    <path
       id="path13"
       d="m 149.887,43.617 79.902,46.977"
       style="fill:none;stroke:#ff2a2a;stroke-width:1.125;stroke-linecap:butt;stroke-linejoin:miter;stroke-miterlimit:4;stroke-dasharray:none;stroke-opacity:0.2"
       transform="scale(1.3333333)" />
    <path
       id="path14"
       d="M 116.555,69.246 229.789,52.977"
       style="fill:none;stroke:#ff2a2a;stroke-width:1.125;stroke-linecap:butt;stroke-linejoin:miter;stroke-miterlimit:4;stroke-dasharray:none;stroke-opacity:0.2"
       transform="scale(1.3333333)" />
    <path
       id="path11"
       d="m 149.887,94.875 79.902,-4.281"
       style="fill:none;stroke:#ff2a2a;stroke-width:1.125;stroke-linecap:butt;stroke-linejoin:miter;stroke-miterlimit:4;stroke-dasharray:none;stroke-opacity:0.2"
       transform="scale(1.3333333)" />
    <path
       id="path12"
       d="m 149.887,43.617 79.902,9.36 -79.902,41.898"
       style="fill:none;stroke:#ff2a2a;stroke-width:1.125;stroke-linecap:butt;stroke-linejoin:miter;stroke-miterlimit:4;stroke-dasharray:none;stroke-opacity:0.2"
       transform="scale(1.3333333)" />
    <path
       id="path15"
       d="M 229.789,90.594 116.555,69.246"
       style="fill:none;stroke:#ff2a2a;stroke-width:1.125;stroke-linecap:butt;stroke-linejoin:miter;stroke-miterlimit:4;stroke-dasharray:none;stroke-opacity:0.2"
       transform="scale(1.3333333)" />
  </g>
  <g
     id="g27"
     inkscape:label="nodes [1-]"
     style="display:inline"
     inkscape:groupmode="layer">
    <g
       id="g25">
      <path
         id="path16"
         d="m 116.602,56.777 c -1.899,0 -3.715,0.754 -5.059,2.098 -1.34,1.34 -2.094,3.16 -2.094,5.059 0.008,2.937 1.805,5.57 4.535,6.644 -1.101,0.254 -2.16,0.672 -3.14,1.238 -3.535,2.043 -5.715,5.817 -5.715,9.899 h 22.848 c 0,-4.082 -2.176,-7.856 -5.711,-9.899 -0.961,-0.554 -2,-0.964 -3.082,-1.218 2.75,-1.067 4.566,-3.711 4.57,-6.664 0,-3.954 -3.203,-7.157 -7.152,-7.157 z"
         style="fill:#5f8dd3;fill-opacity:1;fill-rule:nonzero;stroke:none"
         transform="scale(1.3333333)" />
      <path
         id="path18"
         d="m 149.934,31.148 c -1.899,0 -3.715,0.754 -5.059,2.098 -1.34,1.34 -2.094,3.16 -2.094,5.059 0.008,2.937 1.805,5.57 4.535,6.644 -1.105,0.254 -2.164,0.672 -3.144,1.239 -3.531,2.042 -5.711,5.816 -5.711,9.898 h 22.848 c 0,-4.082 -2.176,-7.856 -5.711,-9.898 -0.965,-0.555 -2.004,-0.965 -3.082,-1.219 2.75,-1.067 4.566,-3.711 4.57,-6.664 0,-3.953 -3.203,-7.157 -7.152,-7.157 z"
         style="fill:#5f8dd3;fill-opacity:1;fill-rule:nonzero;stroke:none"
         transform="scale(1.3333333)" />
      <path
         id="path19"
         d="m 149.934,82.406 c -1.899,0 -3.715,0.754 -5.059,2.098 -1.34,1.34 -2.094,3.16 -2.094,5.058 0.008,2.938 1.805,5.571 4.535,6.645 -1.105,0.254 -2.164,0.672 -3.144,1.238 -3.531,2.043 -5.711,5.817 -5.711,9.899 h 22.848 c 0,-4.082 -2.176,-7.856 -5.711,-9.899 -0.965,-0.554 -2.004,-0.965 -3.082,-1.218 2.75,-1.067 4.566,-3.711 4.57,-6.665 0,-3.949 -3.203,-7.156 -7.152,-7.156 z"
         style="fill:#5f8dd3;fill-opacity:1;fill-rule:nonzero;stroke:none"
         transform="scale(1.3333333)" />
    </g>
    <g
       id="g26">
      <path
         id="path17"
         d="m 229.84,40.508 c -1.899,0 -3.719,0.754 -5.059,2.097 -1.343,1.34 -2.097,3.161 -2.097,5.059 0.007,2.938 1.804,5.57 4.535,6.645 -1.102,0.253 -2.16,0.671 -3.141,1.238 -3.535,2.039 -5.711,5.812 -5.711,9.898 h 22.848 c 0,-4.086 -2.18,-7.859 -5.711,-9.898 -0.965,-0.555 -2.004,-0.965 -3.086,-1.219 2.754,-1.066 4.566,-3.711 4.574,-6.664 0,-3.953 -3.203,-7.156 -7.152,-7.156 z"
         style="fill:#ff8080;fill-opacity:1;fill-rule:nonzero;stroke:none"
         transform="scale(1.3333333)" />
      <path
         id="path20"
         d="m 229.84,78.125 c -1.899,0 -3.719,0.754 -5.059,2.098 -1.343,1.339 -2.097,3.16 -2.097,5.058 0.007,2.938 1.804,5.571 4.535,6.645 -1.102,0.254 -2.16,0.672 -3.141,1.238 -3.535,2.043 -5.711,5.816 -5.711,9.898 h 22.848 c 0,-4.082 -2.18,-7.855 -5.711,-9.898 -0.965,-0.555 -2.004,-0.965 -3.086,-1.219 2.754,-1.066 4.566,-3.711 4.574,-6.664 0,-3.953 -3.203,-7.156 -7.152,-7.156 z"
         style="fill:#ff8080;fill-opacity:1;fill-rule:nonzero;stroke:none"
         transform="scale(1.3333333)" />
    </g>
    <path
       id="path21"
       d="m 185.98,140.473 c -1.898,0 -3.718,0.754 -5.058,2.093 -1.344,1.344 -2.098,3.164 -2.098,5.063 0.008,2.933 1.805,5.57 4.535,6.644 -1.101,0.254 -2.16,0.672 -3.14,1.235 -3.535,2.043 -5.711,5.816 -5.711,9.898 h 22.847 c 0,-4.082 -2.179,-7.855 -5.71,-9.898 -0.965,-0.555 -2.004,-0.965 -3.086,-1.219 2.753,-1.062 4.566,-3.711 4.574,-6.66 0,-3.953 -3.203,-7.156 -7.153,-7.156 z"
       style="fill:#b3b3b3;fill-opacity:1;fill-rule:nonzero;stroke:none"
       transform="scale(1.3333333)" />
  </g>
</svg>
