<?xml version="1.0" encoding="UTF-8" standalone="no"?>
<!-- Created with Inkscape (http://www.inkscape.org/) -->

<svg
   version="1.1"
   id="svg1"
   width="489.50211"
   height="365.35684"
   viewBox="0 0 489.50211 365.35684"
   sodipodi:docname="count-links.svg"
   inkscape:version="1.3.2 (091e20ef0f, 2023-11-25)"
   xml:space="preserve"
   xmlns:inkscape="http://www.inkscape.org/namespaces/inkscape"
   xmlns:sodipodi="http://sodipodi.sourceforge.net/DTD/sodipodi-0.dtd"
   xmlns="http://www.w3.org/2000/svg"
   xmlns:svg="http://www.w3.org/2000/svg"><defs
     id="defs1" /><sodipodi:namedview
     id="namedview1"
     pagecolor="#ffffff"
     bordercolor="#666666"
     borderopacity="1.0"
     inkscape:showpageshadow="2"
     inkscape:pageopacity="0.0"
     inkscape:pagecheckerboard="0"
     inkscape:deskcolor="#d1d1d1"
     showgrid="false"
     inkscape:zoom="2.7803762"
     inkscape:cx="261.29558"
     inkscape:cy="196.73597"
     inkscape:window-width="2158"
     inkscape:window-height="1408"
     inkscape:window-x="0"
     inkscape:window-y="30"
     inkscape:window-maximized="1"
     inkscape:current-layer="g128"><inkscape:page
       x="0"
       y="0"
       inkscape:label="1"
       id="page1"
       width="489.50211"
       height="365.35684"
       margin="0"
       bleed="0" /></sodipodi:namedview><g
     id="g27"
     inkscape:label="nodes [1-]"
     style="display:inline"
     inkscape:groupmode="layer"><path
       id="path1"
       d="m 241.90448,87.160946 c 0,29.944994 -20.97464,54.219854 -46.84207,54.219854 -25.87213,0 -46.84089,-24.27486 -46.84089,-54.219854 0,-29.943813 20.96876,-54.219854 46.84089,-54.219854 25.86743,0 46.84207,24.276041 46.84207,54.219854 z"
       style="display:inline;fill:#000000;fill-opacity:0.12;fill-rule:nonzero;stroke:none;stroke-width:1.17482" /><path
       id="path2"
       d="m 321.25847,91.285947 c 0,25.553673 -10.43262,46.267853 -23.30398,46.267853 -12.86666,0 -23.30398,-20.71418 -23.30398,-46.267853 0,-25.554837 10.43732,-46.269015 23.30398,-46.269015 12.87136,0 23.30398,20.714178 23.30398,46.269015 z"
       style="display:inline;fill:#000000;fill-opacity:0.12;fill-rule:nonzero;stroke:none;stroke-width:1.17482" /><path
       id="path3"
       d="m 272.45411,183.15291 c 0,14.37181 -11.68552,26.02177 -26.09683,26.02177 -14.41132,0 -26.0933,-11.64996 -26.0933,-26.02177 0,-14.37533 11.68198,-26.0253 26.0933,-26.0253 14.41131,0 26.09683,11.64997 26.09683,26.0253 z"
       style="display:inline;fill:#000000;fill-opacity:0.12;fill-rule:nonzero;stroke:none;stroke-width:1.17482" /><g
       id="g108"
       inkscape:label="blue [1-2]"
       style="display:none"
       inkscape:groupmode="layer"><path
         id="path64"
         d="M 164.74218,84.961179 203.95507,54.893006"
         style="display:inline;fill:none;stroke:#2a2aff;stroke-width:1.32167;stroke-linecap:butt;stroke-linejoin:miter;stroke-miterlimit:4;stroke-dasharray:none;stroke-opacity:1" /><path
         id="path65"
         d="M 203.95507,54.893006 V 115.02936"
         style="display:inline;fill:none;stroke:#2a2aff;stroke-width:1.32167;stroke-linecap:butt;stroke-linejoin:miter;stroke-miterlimit:4;stroke-dasharray:none;stroke-opacity:1" /><path
         id="path66"
         d="M 203.95507,115.02936 164.74218,84.961179"
         style="display:inline;fill:none;stroke:#2a2aff;stroke-width:1.32167;stroke-linecap:butt;stroke-linejoin:miter;stroke-miterlimit:4;stroke-dasharray:none;stroke-opacity:1" /><path
         id="path67"
         d="M 297.95449,110.00685 V 65.874242"
         style="display:inline;fill:none;stroke:#2a2aff;stroke-width:1.32167;stroke-linecap:butt;stroke-linejoin:miter;stroke-miterlimit:4;stroke-dasharray:none;stroke-opacity:1" /></g><g
       id="g128"
       inkscape:label="blue dim [3]"
       style="display:inline"
       inkscape:groupmode="layer"><path
         id="path125"
         d="M 164.74218,84.961179 203.95507,54.893006"
         style="display:inline;fill:none;stroke:#2a2aff;stroke-width:1.32167;stroke-linecap:butt;stroke-linejoin:miter;stroke-miterlimit:4;stroke-dasharray:none;stroke-opacity:0.09618346" /><path
         id="path126"
         d="M 203.95507,54.893006 V 115.02936"
         style="display:inline;fill:none;stroke:#2a2aff;stroke-width:1.32167;stroke-linecap:butt;stroke-linejoin:miter;stroke-miterlimit:4;stroke-dasharray:none;stroke-opacity:0.09618346" /><path
         id="path127"
         d="M 203.95507,115.02936 164.74218,84.961179"
         style="display:inline;fill:none;stroke:#2a2aff;stroke-width:1.32167;stroke-linecap:butt;stroke-linejoin:miter;stroke-miterlimit:4;stroke-dasharray:none;stroke-opacity:0.09618346" /><path
         id="path128"
         d="M 297.95449,110.00685 V 65.874242"
         style="display:inline;fill:none;stroke:#2a2aff;stroke-width:1.32167;stroke-linecap:butt;stroke-linejoin:miter;stroke-miterlimit:4;stroke-dasharray:none;stroke-opacity:0.09618346" /></g><g
       id="g109"
       inkscape:label="red [1,3]"
       style="display:inline"
       inkscape:groupmode="layer"><path
         id="path68"
         d="m 164.74218,84.961179 c 6.01981,36.126631 37.13531,68.229141 81.6151,98.191731 l -42.40221,-68.12355"
         style="display:inline;fill:none;stroke:#ff2a2a;stroke-width:1.32167;stroke-linecap:butt;stroke-linejoin:miter;stroke-miterlimit:4;stroke-dasharray:none;stroke-opacity:1" /><path
         id="path69"
         d="m 246.35728,183.15291 51.59721,-73.14606"
         style="display:inline;fill:none;stroke:#ff2a2a;stroke-width:1.32167;stroke-linecap:butt;stroke-linejoin:miter;stroke-miterlimit:4;stroke-dasharray:none;stroke-opacity:1" /><path
         id="path70"
         d="M 297.95449,65.874242 246.35728,183.15291 203.95507,54.893006"
         style="display:inline;fill:none;stroke:#ff2a2a;stroke-width:1.32167;stroke-linecap:butt;stroke-linejoin:miter;stroke-miterlimit:4;stroke-dasharray:none;stroke-opacity:1" /><path
         id="path71"
         d="m 203.95507,54.893006 93.99942,55.113844"
         style="display:inline;fill:none;stroke:#ff2a2a;stroke-width:1.32167;stroke-linecap:butt;stroke-linejoin:miter;stroke-miterlimit:4;stroke-dasharray:none;stroke-opacity:1" /><path
         id="path72"
         d="M 164.74218,84.961179 297.95449,65.874242"
         style="display:inline;fill:none;stroke:#ff2a2a;stroke-width:1.32167;stroke-linecap:butt;stroke-linejoin:miter;stroke-miterlimit:4;stroke-dasharray:none;stroke-opacity:1" /><path
         id="path73"
         d="m 203.95507,115.02936 93.99942,-5.02251"
         style="display:inline;fill:none;stroke:#ff2a2a;stroke-width:1.32167;stroke-linecap:butt;stroke-linejoin:miter;stroke-miterlimit:4;stroke-dasharray:none;stroke-opacity:1" /><path
         id="path74"
         d="m 203.95507,54.893006 93.99942,10.981236 -93.99942,49.155118"
         style="display:inline;fill:none;stroke:#ff2a2a;stroke-width:1.32167;stroke-linecap:butt;stroke-linejoin:miter;stroke-miterlimit:4;stroke-dasharray:none;stroke-opacity:1" /><path
         id="path75"
         d="M 297.95449,110.00685 164.74218,84.961179"
         style="display:inline;fill:none;stroke:#ff2a2a;stroke-width:1.32167;stroke-linecap:butt;stroke-linejoin:miter;stroke-miterlimit:4;stroke-dasharray:none;stroke-opacity:1" /><path
         id="path76"
         d="m 164.74218,84.961179 c 6.01981,36.126631 37.13531,68.229141 81.6151,98.191731 l -42.40221,-68.12355"
         style="display:inline;fill:none;stroke:#ff2a2a;stroke-width:1.32167;stroke-linecap:butt;stroke-linejoin:miter;stroke-miterlimit:4;stroke-dasharray:none;stroke-opacity:0.2" /><path
         id="path77"
         d="m 246.35728,183.15291 51.59721,-73.14606"
         style="display:inline;fill:none;stroke:#ff2a2a;stroke-width:1.32167;stroke-linecap:butt;stroke-linejoin:miter;stroke-miterlimit:4;stroke-dasharray:none;stroke-opacity:0.2" /><path
         id="path78"
         d="M 297.95449,65.874242 246.35728,183.15291 203.95507,54.893006"
         style="display:inline;fill:none;stroke:#ff2a2a;stroke-width:1.32167;stroke-linecap:butt;stroke-linejoin:miter;stroke-miterlimit:4;stroke-dasharray:none;stroke-opacity:0.2" /><path
         id="path79"
         d="m 203.95507,54.893006 93.99942,55.113844"
         style="display:inline;fill:none;stroke:#ff2a2a;stroke-width:1.32167;stroke-linecap:butt;stroke-linejoin:miter;stroke-miterlimit:4;stroke-dasharray:none;stroke-opacity:0.2" /><path
         id="path80"
         d="M 164.74218,84.961179 297.95449,65.874242"
         style="display:inline;fill:none;stroke:#ff2a2a;stroke-width:1.32167;stroke-linecap:butt;stroke-linejoin:miter;stroke-miterlimit:4;stroke-dasharray:none;stroke-opacity:0.2" /><path
         id="path81"
         d="m 203.95507,115.02936 93.99942,-5.02251"
         style="display:inline;fill:none;stroke:#ff2a2a;stroke-width:1.32167;stroke-linecap:butt;stroke-linejoin:miter;stroke-miterlimit:4;stroke-dasharray:none;stroke-opacity:0.2" /><path
         id="path82"
         d="m 203.95507,54.893006 93.99942,10.981236 -93.99942,49.155118"
         style="display:inline;fill:none;stroke:#ff2a2a;stroke-width:1.32167;stroke-linecap:butt;stroke-linejoin:miter;stroke-miterlimit:4;stroke-dasharray:none;stroke-opacity:0.2" /><path
         id="path83"
         d="M 297.95449,110.00685 164.74218,84.961179"
         style="display:inline;fill:none;stroke:#ff2a2a;stroke-width:1.32167;stroke-linecap:butt;stroke-linejoin:miter;stroke-miterlimit:4;stroke-dasharray:none;stroke-opacity:0.2" /></g><g
       id="g124"
       inkscape:label="red dim [2]"
       style="display:none"
       inkscape:groupmode="layer"><path
         id="path109"
         d="m 164.74218,84.961179 c 6.01981,36.126631 37.13531,68.229141 81.6151,98.191731 l -42.40221,-68.12355"
         style="display:inline;fill:none;stroke:#ff2a2a;stroke-width:1.322;stroke-linecap:butt;stroke-linejoin:miter;stroke-miterlimit:4;stroke-dasharray:none;stroke-opacity:0.104161" /><path
         id="path110"
         d="m 246.35728,183.15291 51.59721,-73.14606"
         style="display:inline;fill:none;stroke:#ff2a2a;stroke-width:1.322;stroke-linecap:butt;stroke-linejoin:miter;stroke-miterlimit:4;stroke-dasharray:none;stroke-opacity:0.104161" /><path
         id="path111"
         d="M 297.95449,65.874242 246.35728,183.15291 203.95507,54.893006"
         style="display:inline;fill:none;stroke:#ff2a2a;stroke-width:1.322;stroke-linecap:butt;stroke-linejoin:miter;stroke-miterlimit:4;stroke-dasharray:none;stroke-opacity:0.104161" /><path
         id="path112"
         d="m 203.95507,54.893006 93.99942,55.113844"
         style="display:inline;fill:none;stroke:#ff2a2a;stroke-width:1.322;stroke-linecap:butt;stroke-linejoin:miter;stroke-miterlimit:4;stroke-dasharray:none;stroke-opacity:0.104161" /><path
         id="path113"
         d="M 164.74218,84.961179 297.95449,65.874242"
         style="display:inline;fill:none;stroke:#ff2a2a;stroke-width:1.322;stroke-linecap:butt;stroke-linejoin:miter;stroke-miterlimit:4;stroke-dasharray:none;stroke-opacity:0.104161" /><path
         id="path114"
         d="m 203.95507,115.02936 93.99942,-5.02251"
         style="display:inline;fill:none;stroke:#ff2a2a;stroke-width:1.322;stroke-linecap:butt;stroke-linejoin:miter;stroke-miterlimit:4;stroke-dasharray:none;stroke-opacity:0.104161" /><path
         id="path115"
         d="m 203.95507,54.893006 93.99942,10.981236 -93.99942,49.155118"
         style="display:inline;fill:none;stroke:#ff2a2a;stroke-width:1.322;stroke-linecap:butt;stroke-linejoin:miter;stroke-miterlimit:4;stroke-dasharray:none;stroke-opacity:0.104161" /><path
         id="path116"
         d="M 297.95449,110.00685 164.74218,84.961179"
         style="display:inline;fill:none;stroke:#ff2a2a;stroke-width:1.322;stroke-linecap:butt;stroke-linejoin:miter;stroke-miterlimit:4;stroke-dasharray:none;stroke-opacity:0.104161" /><path
         id="path117"
         d="m 164.74218,84.961179 c 6.01981,36.126631 37.13531,68.229141 81.6151,98.191731 l -42.40221,-68.12355"
         style="display:inline;fill:none;stroke:#ff2a2a;stroke-width:1.322;stroke-linecap:butt;stroke-linejoin:miter;stroke-miterlimit:4;stroke-dasharray:none;stroke-opacity:0.104161" /><path
         id="path118"
         d="m 246.35728,183.15291 51.59721,-73.14606"
         style="display:inline;fill:none;stroke:#ff2a2a;stroke-width:1.322;stroke-linecap:butt;stroke-linejoin:miter;stroke-miterlimit:4;stroke-dasharray:none;stroke-opacity:0.104161" /><path
         id="path119"
         d="M 297.95449,65.874242 246.35728,183.15291 203.95507,54.893006"
         style="display:inline;fill:none;stroke:#ff2a2a;stroke-width:1.322;stroke-linecap:butt;stroke-linejoin:miter;stroke-miterlimit:4;stroke-dasharray:none;stroke-opacity:0.104161" /><path
         id="path120"
         d="m 203.95507,54.893006 93.99942,55.113844"
         style="display:inline;fill:none;stroke:#ff2a2a;stroke-width:1.322;stroke-linecap:butt;stroke-linejoin:miter;stroke-miterlimit:4;stroke-dasharray:none;stroke-opacity:0.104161" /><path
         id="path121"
         d="M 164.74218,84.961179 297.95449,65.874242"
         style="display:inline;fill:none;stroke:#ff2a2a;stroke-width:1.322;stroke-linecap:butt;stroke-linejoin:miter;stroke-miterlimit:4;stroke-dasharray:none;stroke-opacity:0.104161" /><path
         id="path122"
         d="m 203.95507,115.02936 93.99942,-5.02251"
         style="display:inline;fill:none;stroke:#ff2a2a;stroke-width:1.322;stroke-linecap:butt;stroke-linejoin:miter;stroke-miterlimit:4;stroke-dasharray:none;stroke-opacity:0.104161" /><path
         id="path123"
         d="m 203.95507,54.893006 93.99942,10.981236 -93.99942,49.155118"
         style="display:inline;fill:none;stroke:#ff2a2a;stroke-width:1.322;stroke-linecap:butt;stroke-linejoin:miter;stroke-miterlimit:4;stroke-dasharray:none;stroke-opacity:0.104161" /><path
         id="path124"
         d="M 297.95449,110.00685 164.74218,84.961179"
         style="display:inline;fill:none;stroke:#ff2a2a;stroke-width:1.322;stroke-linecap:butt;stroke-linejoin:miter;stroke-miterlimit:4;stroke-dasharray:none;stroke-opacity:0.104161" /></g><g
       id="g25"
       transform="matrix(0.88232541,0,0,0.87990677,27.622932,3.721149)"
       style="display:inline"><path
         id="path16"
         d="m 116.602,56.777 c -1.899,0 -3.715,0.754 -5.059,2.098 -1.34,1.34 -2.094,3.16 -2.094,5.059 0.008,2.937 1.805,5.57 4.535,6.644 -1.101,0.254 -2.16,0.672 -3.14,1.238 -3.535,2.043 -5.715,5.817 -5.715,9.899 h 22.848 c 0,-4.082 -2.176,-7.856 -5.711,-9.899 -0.961,-0.554 -2,-0.964 -3.082,-1.218 2.75,-1.067 4.566,-3.711 4.57,-6.664 0,-3.954 -3.203,-7.157 -7.152,-7.157 z"
         style="fill:#5f8dd3;fill-opacity:1;fill-rule:nonzero;stroke:none"
         transform="scale(1.3333333)" /><path
         id="path18"
         d="m 149.934,31.148 c -1.899,0 -3.715,0.754 -5.059,2.098 -1.34,1.34 -2.094,3.16 -2.094,5.059 0.008,2.937 1.805,5.57 4.535,6.644 -1.105,0.254 -2.164,0.672 -3.144,1.239 -3.531,2.042 -5.711,5.816 -5.711,9.898 h 22.848 c 0,-4.082 -2.176,-7.856 -5.711,-9.898 -0.965,-0.555 -2.004,-0.965 -3.082,-1.219 2.75,-1.067 4.566,-3.711 4.57,-6.664 0,-3.953 -3.203,-7.157 -7.152,-7.157 z"
         style="fill:#5f8dd3;fill-opacity:1;fill-rule:nonzero;stroke:none"
         transform="scale(1.3333333)" /><path
         id="path19"
         d="m 149.934,82.406 c -1.899,0 -3.715,0.754 -5.059,2.098 -1.34,1.34 -2.094,3.16 -2.094,5.058 0.008,2.938 1.805,5.571 4.535,6.645 -1.105,0.254 -2.164,0.672 -3.144,1.238 -3.531,2.043 -5.711,5.817 -5.711,9.899 h 22.848 c 0,-4.082 -2.176,-7.856 -5.711,-9.899 -0.965,-0.554 -2.004,-0.965 -3.082,-1.218 2.75,-1.067 4.566,-3.711 4.57,-6.665 0,-3.949 -3.203,-7.156 -7.152,-7.156 z"
         style="fill:#5f8dd3;fill-opacity:1;fill-rule:nonzero;stroke:none"
         transform="scale(1.3333333)" /></g><g
       id="g26"
       transform="matrix(0.88232541,0,0,0.87990677,27.622932,3.721149)"
       style="display:inline"><path
         id="path17"
         d="m 229.84,40.508 c -1.899,0 -3.719,0.754 -5.059,2.097 -1.343,1.34 -2.097,3.161 -2.097,5.059 0.007,2.938 1.804,5.57 4.535,6.645 -1.102,0.253 -2.16,0.671 -3.141,1.238 -3.535,2.039 -5.711,5.812 -5.711,9.898 h 22.848 c 0,-4.086 -2.18,-7.859 -5.711,-9.898 -0.965,-0.555 -2.004,-0.965 -3.086,-1.219 2.754,-1.066 4.566,-3.711 4.574,-6.664 0,-3.953 -3.203,-7.156 -7.152,-7.156 z"
         style="fill:#ff8080;fill-opacity:1;fill-rule:nonzero;stroke:none"
         transform="scale(1.3333333)" /><path
         id="path20"
         d="m 229.84,78.125 c -1.899,0 -3.719,0.754 -5.059,2.098 -1.343,1.339 -2.097,3.16 -2.097,5.058 0.007,2.938 1.804,5.571 4.535,6.645 -1.102,0.254 -2.16,0.672 -3.141,1.238 -3.535,2.043 -5.711,5.816 -5.711,9.898 h 22.848 c 0,-4.082 -2.18,-7.855 -5.711,-9.898 -0.965,-0.555 -2.004,-0.965 -3.086,-1.219 2.754,-1.066 4.566,-3.711 4.574,-6.664 0,-3.953 -3.203,-7.156 -7.152,-7.156 z"
         style="fill:#ff8080;fill-opacity:1;fill-rule:nonzero;stroke:none"
         transform="scale(1.3333333)" /></g><path
       id="path21"
       d="m 246.4161,168.52534 c -2.23287,0 -4.37398,0.8846 -5.9504,2.45553 -1.58113,1.57679 -2.46816,3.71203 -2.46816,5.93995 0.009,3.44103 2.12346,6.53478 5.33513,7.7948 -1.29526,0.298 -2.5411,0.7884 -3.69401,1.44892 -4.15869,2.39686 -6.71861,6.82338 -6.71861,11.61242 h 26.87799 c 0,-4.78904 -2.56345,-9.21556 -6.71744,-11.61242 -1.13526,-0.65113 -2.35758,-1.13215 -3.63048,-1.43014 3.23873,-1.24595 5.3716,-4.35378 5.38101,-7.81358 0,-4.63769 -3.76812,-8.39548 -8.41503,-8.39548 z"
       style="fill:#b3b3b3;fill-opacity:1;fill-rule:nonzero;stroke:none;stroke-width:1.17482" /></g></svg>
