<?xml version="1.0" encoding="UTF-8" standalone="no"?>
<!-- Created with Inkscape (http://www.inkscape.org/) -->

<svg
   version="1.1"
   id="svg1"
   width="489.50211"
   height="365.35684"
   viewBox="0 0 489.50211 365.35684"
   sodipodi:docname="count-t+--.svg"
   inkscape:version="1.3.2 (091e20ef0f, 2023-11-25)"
   xmlns:inkscape="http://www.inkscape.org/namespaces/inkscape"
   xmlns:sodipodi="http://sodipodi.sourceforge.net/DTD/sodipodi-0.dtd"
   xmlns="http://www.w3.org/2000/svg"
   xmlns:svg="http://www.w3.org/2000/svg">
  <defs
     id="defs1" />
  <sodipodi:namedview
     id="namedview1"
     pagecolor="#ffffff"
     bordercolor="#666666"
     borderopacity="1.0"
     inkscape:showpageshadow="2"
     inkscape:pageopacity="0.0"
     inkscape:pagecheckerboard="0"
     inkscape:deskcolor="#d1d1d1"
     showgrid="false"
     inkscape:zoom="5.6568542"
     inkscape:cx="234.67107"
     inkscape:cy="114.90485"
     inkscape:window-width="2158"
     inkscape:window-height="1408"
     inkscape:window-x="0"
     inkscape:window-y="30"
     inkscape:window-maximized="1"
     inkscape:current-layer="g29">
    <inkscape:page
       x="0"
       y="0"
       inkscape:label="1"
       id="page1"
       width="489.50211"
       height="365.35684"
       margin="0"
       bleed="0" />
  </sodipodi:namedview>
  <g
     id="g24"
     inkscape:label="groups-background [1-]"
     inkscape:groupmode="layer"
     style="display:inline">
    <path
       id="path1"
       d="m 241.81852,87.507106 c 0,29.860034 -20.85758,54.066034 -46.58064,54.066034 -25.72773,0 -46.57947,-24.206 -46.57947,-54.066034 0,-29.858861 20.85174,-54.06603 46.57947,-54.06603 25.72306,0 46.58064,24.207169 46.58064,54.06603 z"
       style="fill:#000000;fill-opacity:0.12;fill-rule:nonzero;stroke:none;stroke-width:1.33333" />
    <path
       id="path2"
       d="m 320.72963,91.620406 c 0,25.481164 -10.37439,46.136574 -23.17391,46.136574 -12.79485,0 -23.17392,-20.65541 -23.17392,-46.136574 0,-25.482338 10.37907,-46.137749 23.17392,-46.137749 12.79952,0 23.17391,20.655411 23.17391,46.137749 z"
       style="fill:#000000;fill-opacity:0.12;fill-rule:nonzero;stroke:none;stroke-width:1.33333" />
    <path
       id="path3"
       d="m 272.19765,183.22673 c 0,14.33104 -11.6203,25.94795 -25.95118,25.94795 -14.33088,0 -25.94767,-11.61691 -25.94767,-25.94795 0,-14.33454 11.61679,-25.95146 25.94767,-25.95146 14.33088,0 25.95118,11.61692 25.95118,25.95146 z"
       style="fill:#000000;fill-opacity:0.12;fill-rule:nonzero;stroke:none;stroke-width:1.33333" />
    <g
       id="g37"
       inkscape:groupmode="layer"
       inkscape:label="ring [2-]"
       style="fill:none;fill-opacity:1;marker-end:none;marker-start:none;stroke:black;stroke-dasharray:6.25, 6.25;stroke-opacity:1;stroke-width:1">
      <path
         id="path37"
         d="m 241.81852,87.507106 c 0,29.860034 -20.85758,54.066034 -46.58064,54.066034 -25.72773,0 -46.57947,-24.206 -46.57947,-54.066034 0,-29.858861 20.85174,-54.06603 46.57947,-54.06603 25.72306,0 46.58064,24.207169 46.58064,54.06603 z"
         style="fill:none;fill-opacity:1;fill-rule:nonzero;stroke:black;stroke-width:1;stroke-dasharray:6.25, 6.25;stroke-opacity:1;marker-start:none;marker-end:none" />
      <path
         id="path7"
         d="m 320.72963,91.620406 c 0,25.481164 -10.37439,46.136574 -23.17391,46.136574 -12.79485,0 -23.17392,-20.65541 -23.17392,-46.136574 0,-25.482338 10.37907,-46.137749 23.17392,-46.137749 12.79952,0 23.17391,20.655411 23.17391,46.137749 z"
         style="fill:none;fill-opacity:1;fill-rule:nonzero;stroke:black;stroke-width:1;stroke-dasharray:6.25, 6.25;stroke-opacity:1;marker-start:none;marker-end:none" />
    </g>
  </g>
  <g
     id="g29"
     inkscape:label="blue-dim [2-]"
     style="display:inline"
     inkscape:groupmode="layer">
    <path
       id="path9"
       d="M 165.08687,85.313579 204.08092,55.330711"
       style="font-variation-settings:normal;opacity:1;vector-effect:none;fill:none;fill-opacity:1;stroke:#2a2aff;stroke-width:1.5;stroke-linecap:butt;stroke-linejoin:miter;stroke-miterlimit:4;stroke-dasharray:none;stroke-dashoffset:0;stroke-opacity:0.2;-inkscape-stroke:none;stop-color:#000000;stop-opacity:1" />
    <path
       id="path25"
       d="M 204.08092,55.330711 V 115.29645"
       style="font-variation-settings:normal;opacity:1;vector-effect:none;fill:none;fill-opacity:1;stroke:#2a2aff;stroke-width:1.5;stroke-linecap:butt;stroke-linejoin:miter;stroke-miterlimit:4;stroke-dasharray:none;stroke-dashoffset:0;stroke-opacity:1;-inkscape-stroke:none;stop-color:#000000;stop-opacity:1" />
    <path
       id="path26"
       d="M 204.08092,115.29645 165.08687,85.313579"
       style="font-variation-settings:normal;opacity:1;vector-effect:none;fill:none;fill-opacity:1;stroke:#2a2aff;stroke-width:1.5;stroke-linecap:butt;stroke-linejoin:miter;stroke-miterlimit:4;stroke-dasharray:none;stroke-dashoffset:0;stroke-opacity:0.2;-inkscape-stroke:none;stop-color:#000000;stop-opacity:1" />
    <path
       id="path27"
       d="M 297.55572,110.28819 V 66.280793"
       style="font-variation-settings:normal;display:inline;opacity:1;vector-effect:none;fill:none;fill-opacity:1;stroke:#2a2aff;stroke-width:1.5;stroke-linecap:butt;stroke-linejoin:miter;stroke-miterlimit:4;stroke-dasharray:none;stroke-dashoffset:0;stroke-opacity:0.2;-inkscape-stroke:none;stop-color:#000000;stop-opacity:1" />
  </g>
  <g
     id="g30"
     inkscape:label="blue [1]"
     style="display:none"
     inkscape:groupmode="layer">
    <path
       id="path22"
       d="M 165.08687,85.313579 204.08092,55.330711"
       style="fill:none;stroke:#2a2aff;stroke-width:1.5;stroke-linecap:butt;stroke-linejoin:miter;stroke-miterlimit:4;stroke-dasharray:none;stroke-opacity:1" />
    <path
       id="path23"
       d="M 204.08092,55.330711 V 115.29645"
       style="fill:none;stroke:#2a2aff;stroke-width:1.5;stroke-linecap:butt;stroke-linejoin:miter;stroke-miterlimit:4;stroke-dasharray:none;stroke-opacity:1" />
    <path
       id="path24"
       d="M 204.08092,115.29645 165.08687,85.313579"
       style="fill:none;stroke:#2a2aff;stroke-width:1.5;stroke-linecap:butt;stroke-linejoin:miter;stroke-miterlimit:4;stroke-dasharray:none;stroke-opacity:1" />
    <path
       id="path10"
       d="M 297.55572,110.28819 V 66.280793"
       style="display:inline;fill:none;stroke:#2a2aff;stroke-width:1.5;stroke-linecap:butt;stroke-linejoin:miter;stroke-miterlimit:4;stroke-dasharray:none;stroke-opacity:1" />
  </g>
  <g
     id="g36"
     style="display:none;opacity:1"
     inkscape:label="red [1]"
     inkscape:groupmode="layer">
    <path
       id="path29"
       d="m 165.08687,85.313579 c 5.98622,36.024131 36.92806,68.035571 81.1596,97.913151 l -42.16555,-67.93028"
       style="fill:none;stroke:#ff2a2a;stroke-width:1.5;stroke-linecap:butt;stroke-linejoin:miter;stroke-miterlimit:4;stroke-dasharray:none;stroke-opacity:1" />
    <path
       id="path30"
       d="m 246.24647,183.22673 51.30925,-72.93854"
       style="fill:none;stroke:#ff2a2a;stroke-width:1.5;stroke-linecap:butt;stroke-linejoin:miter;stroke-miterlimit:4;stroke-dasharray:none;stroke-opacity:1" />
    <path
       id="path31"
       d="M 297.55572,66.280793 246.24647,183.22673 204.08092,55.330711"
       style="fill:none;stroke:#ff2a2a;stroke-width:1.5;stroke-linecap:butt;stroke-linejoin:miter;stroke-miterlimit:4;stroke-dasharray:none;stroke-opacity:1" />
    <path
       id="path32"
       d="m 204.08092,55.330711 93.4748,54.957479"
       style="fill:none;stroke:#ff2a2a;stroke-width:1.5;stroke-linecap:butt;stroke-linejoin:miter;stroke-miterlimit:4;stroke-dasharray:none;stroke-opacity:1" />
    <path
       id="path33"
       d="M 165.08687,85.313579 297.55572,66.280793"
       style="fill:none;stroke:#ff2a2a;stroke-width:1.5;stroke-linecap:butt;stroke-linejoin:miter;stroke-miterlimit:4;stroke-dasharray:none;stroke-opacity:1" />
    <path
       id="path34"
       d="m 204.08092,115.29645 93.4748,-5.00826"
       style="fill:none;stroke:#ff2a2a;stroke-width:1.5;stroke-linecap:butt;stroke-linejoin:miter;stroke-miterlimit:4;stroke-dasharray:none;stroke-opacity:1" />
    <path
       id="path35"
       d="m 204.08092,55.330711 93.4748,10.950082 -93.4748,49.015657"
       style="fill:none;stroke:#ff2a2a;stroke-width:1.5;stroke-linecap:butt;stroke-linejoin:miter;stroke-miterlimit:4;stroke-dasharray:none;stroke-opacity:1" />
    <path
       id="path36"
       d="M 297.55572,110.28819 165.08687,85.313579"
       style="fill:none;stroke:#ff2a2a;stroke-width:1.5;stroke-linecap:butt;stroke-linejoin:miter;stroke-miterlimit:4;stroke-dasharray:none;stroke-opacity:1" />
  </g>
  <g
     id="g28"
     style="display:inline;opacity:1"
     inkscape:label="red-dim [2-]"
     inkscape:groupmode="layer">
    <path
       id="path4"
       d="m 165.08687,85.313579 c 5.98622,36.024131 36.92806,68.035571 81.1596,97.913151 l -42.16555,-67.93028"
       style="fill:none;stroke:#ff2a2a;stroke-width:1.5;stroke-linecap:butt;stroke-linejoin:miter;stroke-miterlimit:4;stroke-dasharray:none;stroke-opacity:0.2" />
    <path
       id="path5"
       d="m 246.24647,183.22673 51.30925,-72.93854"
       style="fill:none;stroke:#ff2a2a;stroke-width:1.5;stroke-linecap:butt;stroke-linejoin:miter;stroke-miterlimit:4;stroke-dasharray:none;stroke-opacity:0.2;font-variation-settings:normal;opacity:1;vector-effect:none;fill-opacity:1;stroke-dashoffset:0;-inkscape-stroke:none;stop-color:#000000;stop-opacity:1" />
    <path
       style="fill:none;stroke:#ff2a2a;stroke-width:1.5;stroke-linecap:butt;stroke-linejoin:miter;stroke-miterlimit:4;stroke-dasharray:none;stroke-opacity:0.2;font-variation-settings:normal;opacity:1;vector-effect:none;fill-opacity:1;stroke-dashoffset:0;-inkscape-stroke:none;stop-color:#000000;stop-opacity:1"
       d="M 246.24647,183.22673 204.08092,55.330711"
       id="path38" />
    <path
       style="fill:none;stroke:#ff2a2a;stroke-width:1.5;stroke-linecap:butt;stroke-linejoin:miter;stroke-miterlimit:4;stroke-dasharray:none;stroke-opacity:0.2"
       d="M 297.55572,66.280793 246.24647,183.22673"
       id="path6" />
    <path
       id="path13"
       d="m 204.08092,55.330711 93.4748,54.957479"
       style="fill:none;stroke:#ff2a2a;stroke-width:1.5;stroke-linecap:butt;stroke-linejoin:miter;stroke-miterlimit:4;stroke-dasharray:none;stroke-opacity:1" />
    <path
       id="path14"
       d="M 165.08687,85.313579 297.55572,66.280793"
       style="fill:none;stroke:#ff2a2a;stroke-width:1.5;stroke-linecap:butt;stroke-linejoin:miter;stroke-miterlimit:4;stroke-dasharray:none;stroke-opacity:0.2" />
    <path
       id="path11"
       d="m 204.08092,115.29645 93.4748,-5.00826"
       style="fill:none;stroke:#ff2a2a;stroke-width:1.5;stroke-linecap:butt;stroke-linejoin:miter;stroke-miterlimit:4;stroke-dasharray:none;stroke-opacity:1;font-variation-settings:normal;opacity:1;vector-effect:none;fill-opacity:1;stroke-dashoffset:0;-inkscape-stroke:none;stop-color:#000000;stop-opacity:1" />
    <path
       id="path12"
       d="m 204.08092,55.330711 93.4748,10.950082 -93.4748,49.015657"
       style="fill:none;stroke:#ff2a2a;stroke-width:1.5;stroke-linecap:butt;stroke-linejoin:miter;stroke-miterlimit:4;stroke-dasharray:none;stroke-opacity:0.2" />
    <path
       id="path15"
       d="M 297.55572,110.28819 165.08687,85.313579"
       style="fill:none;stroke:#ff2a2a;stroke-width:1.5;stroke-linecap:butt;stroke-linejoin:miter;stroke-miterlimit:4;stroke-dasharray:none;stroke-opacity:0.2" />
  </g>
  <g
     id="g27"
     inkscape:label="nodes [1-]"
     style="display:inline"
     inkscape:groupmode="layer">
    <g
       id="g25"
       transform="matrix(0.87740106,0,0,0.87741042,28.732904,4.3040323)"
       style="stroke-width:1.13972">
      <path
         id="path16"
         d="m 116.602,56.777 c -1.899,0 -3.715,0.754 -5.059,2.098 -1.34,1.34 -2.094,3.16 -2.094,5.059 0.008,2.937 1.805,5.57 4.535,6.644 -1.101,0.254 -2.16,0.672 -3.14,1.238 -3.535,2.043 -5.715,5.817 -5.715,9.899 h 22.848 c 0,-4.082 -2.176,-7.856 -5.711,-9.899 -0.961,-0.554 -2,-0.964 -3.082,-1.218 2.75,-1.067 4.566,-3.711 4.57,-6.664 0,-3.954 -3.203,-7.157 -7.152,-7.157 z"
         style="fill:#5f8dd3;fill-opacity:1;fill-rule:nonzero;stroke:none;stroke-width:1.13972"
         transform="scale(1.3333333)" />
      <path
         id="path18"
         d="m 149.934,31.148 c -1.899,0 -3.715,0.754 -5.059,2.098 -1.34,1.34 -2.094,3.16 -2.094,5.059 0.008,2.937 1.805,5.57 4.535,6.644 -1.105,0.254 -2.164,0.672 -3.144,1.239 -3.531,2.042 -5.711,5.816 -5.711,9.898 h 22.848 c 0,-4.082 -2.176,-7.856 -5.711,-9.898 -0.965,-0.555 -2.004,-0.965 -3.082,-1.219 2.75,-1.067 4.566,-3.711 4.57,-6.664 0,-3.953 -3.203,-7.157 -7.152,-7.157 z"
         style="fill:#5f8dd3;fill-opacity:1;fill-rule:nonzero;stroke:none;stroke-width:1.13972"
         transform="scale(1.3333333)" />
      <path
         id="path19"
         d="m 149.934,82.406 c -1.899,0 -3.715,0.754 -5.059,2.098 -1.34,1.34 -2.094,3.16 -2.094,5.058 0.008,2.938 1.805,5.571 4.535,6.645 -1.105,0.254 -2.164,0.672 -3.144,1.238 -3.531,2.043 -5.711,5.817 -5.711,9.899 h 22.848 c 0,-4.082 -2.176,-7.856 -5.711,-9.899 -0.965,-0.554 -2.004,-0.965 -3.082,-1.218 2.75,-1.067 4.566,-3.711 4.57,-6.665 0,-3.949 -3.203,-7.156 -7.152,-7.156 z"
         style="fill:#5f8dd3;fill-opacity:1;fill-rule:nonzero;stroke:none;stroke-width:1.13972"
         transform="scale(1.3333333)" />
    </g>
    <g
       id="g26"
       transform="matrix(0.87740106,0,0,0.87741042,28.732904,4.3040323)"
       style="stroke-width:1.13972">
      <path
         id="path17"
         d="m 229.84,40.508 c -1.899,0 -3.719,0.754 -5.059,2.097 -1.343,1.34 -2.097,3.161 -2.097,5.059 0.007,2.938 1.804,5.57 4.535,6.645 -1.102,0.253 -2.16,0.671 -3.141,1.238 -3.535,2.039 -5.711,5.812 -5.711,9.898 h 22.848 c 0,-4.086 -2.18,-7.859 -5.711,-9.898 -0.965,-0.555 -2.004,-0.965 -3.086,-1.219 2.754,-1.066 4.566,-3.711 4.574,-6.664 0,-3.953 -3.203,-7.156 -7.152,-7.156 z"
         style="fill:#ff8080;fill-opacity:1;fill-rule:nonzero;stroke:none;stroke-width:1.13972"
         transform="scale(1.3333333)" />
      <path
         id="path20"
         d="m 229.84,78.125 c -1.899,0 -3.719,0.754 -5.059,2.098 -1.343,1.339 -2.097,3.16 -2.097,5.058 0.007,2.938 1.804,5.571 4.535,6.645 -1.102,0.254 -2.16,0.672 -3.141,1.238 -3.535,2.043 -5.711,5.816 -5.711,9.898 h 22.848 c 0,-4.082 -2.18,-7.855 -5.711,-9.898 -0.965,-0.555 -2.004,-0.965 -3.086,-1.219 2.754,-1.066 4.566,-3.711 4.574,-6.664 0,-3.953 -3.203,-7.156 -7.152,-7.156 z"
         style="fill:#ff8080;fill-opacity:1;fill-rule:nonzero;stroke:none;stroke-width:1.13972"
         transform="scale(1.3333333)" />
    </g>
    <path
       id="path21"
       d="m 246.30497,168.64066 c -2.22042,0 -4.34958,0.88209 -5.9172,2.44856 -1.5723,1.57232 -2.45439,3.7015 -2.45439,5.9231 0.009,3.43127 2.11162,6.51624 5.30536,7.77269 -1.28803,0.29715 -2.52692,0.78616 -3.67339,1.4448 -4.13548,2.39007 -6.68111,6.80403 -6.68111,11.57948 h 26.72797 c 0,-4.77545 -2.54914,-9.18941 -6.67994,-11.57948 -1.12893,-0.64928 -2.34442,-1.12893 -3.61022,-1.42608 3.22065,-1.24242 5.34162,-4.34143 5.35098,-7.79141 0,-4.62453 -3.74709,-8.37166 -8.36806,-8.37166 z"
       style="fill:#b3b3b3;fill-opacity:1;fill-rule:nonzero;stroke:none;stroke-width:1.33333" />
  </g>
</svg>
