<?xml version="1.0" encoding="UTF-8" standalone="no"?>
<!-- Created with Inkscape (http://www.inkscape.org/) -->

<svg
   width="240mm"
   height="120mm"
   viewBox="0 0 240 120"
   version="1.1"
   id="svg8"
   inkscape:version="1.3.2 (091e20ef0f, 2023-11-25)"
   sodipodi:docname="diputados.svg"
   xml:space="preserve"
   xmlns:inkscape="http://www.inkscape.org/namespaces/inkscape"
   xmlns:sodipodi="http://sodipodi.sourceforge.net/DTD/sodipodi-0.dtd"
   xmlns="http://www.w3.org/2000/svg"
   xmlns:svg="http://www.w3.org/2000/svg"
   xmlns:rdf="http://www.w3.org/1999/02/22-rdf-syntax-ns#"
   xmlns:cc="http://creativecommons.org/ns#"
   xmlns:dc="http://purl.org/dc/elements/1.1/"><defs
     id="defs2"><inkscape:path-effect
       effect="fillet_chamfer"
       id="path-effect11"
       is_visible="true"
       lpeversion="1"
       nodesatellites_param="F,0,0,1,0,3.4395833,0,1 @ F,0,0,1,0,3.4395833,0,1 @ F,0,0,1,0,3.4395833,0,1"
       radius="13"
       unit="px"
       method="auto"
       mode="F"
       chamfer_steps="1"
       flexible="false"
       use_knot_distance="true"
       apply_no_radius="true"
       apply_with_radius="true"
       only_selected="false"
       hide_knots="false" /><inkscape:path-effect
       effect="fillet_chamfer"
       id="path-effect10"
       is_visible="true"
       lpeversion="1"
       nodesatellites_param="F,0,0,1,0,1.1803042,0,1 @ F,0,0,1,0,1.1983801,0,1 @ F,0,0,1,0,1.4043462,0,1"
       radius="0"
       unit="px"
       method="auto"
       mode="F"
       chamfer_steps="1"
       flexible="false"
       use_knot_distance="true"
       apply_no_radius="true"
       apply_with_radius="true"
       only_selected="false"
       hide_knots="false" /><inkscape:path-effect
       effect="fillet_chamfer"
       id="path-effect9"
       is_visible="true"
       lpeversion="1"
       nodesatellites_param="F,0,0,1,0,3.1066106,0,1 @ F,0,0,1,0,0.47159238,0,1 @ F,0,0,1,0,1.0451866,0,1 @ F,0,0,1,0,0.47159238,0,1"
       radius="0"
       unit="px"
       method="auto"
       mode="F"
       chamfer_steps="1"
       flexible="false"
       use_knot_distance="true"
       apply_no_radius="true"
       apply_with_radius="true"
       only_selected="false"
       hide_knots="false" /></defs><sodipodi:namedview
     id="base"
     pagecolor="#ffffff"
     bordercolor="#666666"
     borderopacity="1.0"
     inkscape:pageopacity="0.0"
     inkscape:pageshadow="2"
     inkscape:zoom="2.8125141"
     inkscape:cx="460.08659"
     inkscape:cy="217.24336"
     inkscape:document-units="mm"
     inkscape:current-layer="g52"
     showgrid="false"
     showborder="true"
     width="200mm"
     showguides="true"
     inkscape:guide-bbox="true"
     inkscape:window-width="3262"
     inkscape:window-height="1804"
     inkscape:window-x="2160"
     inkscape:window-y="30"
     inkscape:window-maximized="1"
     inkscape:showpageshadow="2"
     inkscape:pagecheckerboard="0"
     inkscape:deskcolor="#d1d1d1"><inkscape:grid
       type="xygrid"
       id="grid815"
       units="mm"
       spacingx="10"
       spacingy="10"
       empspacing="4"
       dotted="false"
       originx="0"
       originy="0"
       visible="false" /></sodipodi:namedview><metadata
     id="metadata5"><rdf:RDF><cc:Work
         rdf:about=""><dc:format>image/svg+xml</dc:format><dc:type
           rdf:resource="http://purl.org/dc/dcmitype/StillImage" /><dc:title /></cc:Work></rdf:RDF></metadata><g
     inkscape:label="Layer 1"
     inkscape:groupmode="layer"
     id="layer1"
     transform="translate(0,-177)"><g
       id="g52"
       style="display:inline"
       inkscape:label="nodes"><path
         id="circle3"
         style="fill:#b3b3b3;stroke:#ffffff;stroke-width:1.252;stroke-dasharray:none"
         d="m 96.57898,228.8291 a 3.6915853,3.6969329 0 0 0 -3.69173,3.69685 3.6915853,3.6969329 0 0 0 2.34036,3.43252 5.896094,5.9046351 0 0 0 -1.62148,0.63873 5.896094,5.9046351 0 0 0 -2.94804,5.1135 h 11.79211 a 5.896094,5.9046351 0 0 0 -2.94803,-5.1135 5.896094,5.9046351 0 0 0 -1.59156,-0.62959 3.6915853,3.6969329 0 0 0 2.35987,-3.44166 3.6915853,3.6969329 0 0 0 -3.6915,-3.69685 z" /><path
         id="path22"
         style="font-variation-settings:normal;opacity:1;vector-effect:none;fill:#b3b3b3;fill-opacity:1;stroke:#ffffff;stroke-width:1.252;stroke-linecap:butt;stroke-linejoin:miter;stroke-miterlimit:4;stroke-dasharray:none;stroke-dashoffset:0;stroke-opacity:1;-inkscape-stroke:none;stop-color:#000000;stop-opacity:1"
         d="m 73.785149,237.31467 a 3.8579122,3.863092 0 0 0 -3.85805,3.86301 3.8579122,3.863092 0 0 0 2.44579,3.58679 6.1617467,6.1700198 0 0 0 -1.694535,0.66744 6.1617467,6.1700198 0 0 0 -3.080853,5.34333 h 12.323416 a 6.1617467,6.1700198 0 0 0 -3.08086,-5.34333 6.1617467,6.1700198 0 0 0 -1.663265,-0.6579 3.8579122,3.863092 0 0 0 2.466185,-3.59633 3.8579122,3.863092 0 0 0 -3.857828,-3.86301 z" /><path
         id="path23"
         style="font-variation-settings:normal;opacity:1;vector-effect:none;fill:#b3b3b3;fill-opacity:1;stroke:#ffffff;stroke-width:1.252;stroke-linecap:butt;stroke-linejoin:miter;stroke-miterlimit:4;stroke-dasharray:none;stroke-dashoffset:0;stroke-opacity:1;-inkscape-stroke:none;stop-color:#000000;stop-opacity:1"
         d="m 78.103493,212.77715 a 3.7306752,3.7327674 0 0 0 -3.730801,3.73269 3.7306752,3.7327674 0 0 0 2.36513,3.46579 5.9585274,5.961869 0 0 0 -1.63865,0.64493 5.9585274,5.961869 0 0 0 -2.97925,5.16306 H 84.0369 a 5.9585274,5.961869 0 0 0 -2.979237,-5.16306 5.9585274,5.961869 0 0 0 -1.60842,-0.63571 3.7306752,3.7327674 0 0 0 2.384867,-3.47501 3.7306752,3.7327674 0 0 0 -3.730617,-3.73269 z" /><path
         id="path32"
         style="font-variation-settings:normal;vector-effect:none;fill:#b3b3b3;fill-opacity:1;stroke:#ffffff;stroke-width:1.252;stroke-linecap:butt;stroke-linejoin:miter;stroke-miterlimit:4;stroke-dasharray:none;stroke-dashoffset:0;stroke-opacity:1;-inkscape-stroke:none;stop-color:#000000"
         d="m 137.14208,246.03669 a 3.8579122,3.863092 0 0 1 3.85805,3.86301 3.8579122,3.863092 0 0 1 -2.44579,3.58679 6.1617467,6.1700198 0 0 1 1.69454,0.66744 6.1617467,6.1700198 0 0 1 3.08085,5.34333 h -12.32341 a 6.1617467,6.1700198 0 0 1 3.08086,-5.34333 6.1617467,6.1700198 0 0 1 1.66326,-0.6579 3.8579122,3.863092 0 0 1 -2.46618,-3.59633 3.8579122,3.863092 0 0 1 3.85782,-3.86301 z" /><path
         id="path33"
         style="font-variation-settings:normal;vector-effect:none;fill:#b3b3b3;fill-opacity:1;stroke:#ffffff;stroke-width:1.252;stroke-linecap:butt;stroke-linejoin:miter;stroke-miterlimit:4;stroke-dasharray:none;stroke-dashoffset:0;stroke-opacity:1;-inkscape-stroke:none;stop-color:#000000"
         d="m 137.14294,210.39768 a 3.7306752,3.7327674 0 0 1 3.7308,3.73269 3.7306752,3.7327674 0 0 1 -2.36513,3.46579 5.9585274,5.961869 0 0 1 1.63865,0.64493 5.9585274,5.961869 0 0 1 2.97925,5.16306 h -11.91698 a 5.9585274,5.961869 0 0 1 2.97924,-5.16306 5.9585274,5.961869 0 0 1 1.60842,-0.63571 3.7306752,3.7327674 0 0 1 -2.38487,-3.47501 3.7306752,3.7327674 0 0 1 3.73062,-3.73269 z" /><g
         id="path24"
         transform="matrix(0.64568941,0,0,0.64568377,76.419458,58.904994)"
         style="font-variation-settings:normal;vector-effect:none;fill:#b3b3b3;fill-opacity:1;stroke:#ffffff;stroke-width:1.93902;stroke-linecap:butt;stroke-linejoin:miter;stroke-miterlimit:4;stroke-dasharray:none;stroke-dashoffset:0;stroke-opacity:1;-inkscape-stroke:none;stop-color:#000000"><path
           style="color:#000000;font-variation-settings:normal;vector-effect:none;fill:#b3b3b3;fill-opacity:1;stroke:#ffffff;stroke-width:1.93902;stroke-linecap:butt;stroke-linejoin:miter;stroke-miterlimit:4;stroke-dasharray:none;stroke-dashoffset:0;stroke-opacity:1;-inkscape-stroke:none;stop-color:#000000;stop-opacity:1"
           d="m 122.17431,262.57274 a 5.7781231,5.7813652 0 0 0 -5.77833,5.78124 5.7781231,5.7813652 0 0 0 3.66314,5.36787 9.2286524,9.2338306 0 0 0 -2.53796,0.99887 9.2286524,9.2338306 0 0 0 -4.6143,7.99663 h 18.45719 a 9.2286524,9.2338306 0 0 0 -4.6143,-7.99663 9.2286524,9.2338306 0 0 0 -2.49113,-0.98459 5.7781231,5.7813652 0 0 0 3.69369,-5.38215 5.7781231,5.7813652 0 0 0 -5.778,-5.78124 z"
           id="path25" /></g><g
         id="g34"
         transform="matrix(-0.64568941,0,0,0.64568377,197.91659,58.904994)"
         style="font-variation-settings:normal;vector-effect:none;fill:#b3b3b3;fill-opacity:1;stroke:#ffffff;stroke-width:1.93902;stroke-linecap:butt;stroke-linejoin:miter;stroke-miterlimit:4;stroke-dasharray:none;stroke-dashoffset:0;stroke-opacity:1;-inkscape-stroke:none;stop-color:#000000"><path
           style="color:#000000;font-variation-settings:normal;vector-effect:none;fill:#b3b3b3;fill-opacity:1;stroke:#ffffff;stroke-width:1.93902;stroke-linecap:butt;stroke-linejoin:miter;stroke-miterlimit:4;stroke-dasharray:none;stroke-dashoffset:0;stroke-opacity:1;-inkscape-stroke:none;stop-color:#000000;stop-opacity:1"
           d="m 122.17431,262.57274 a 5.7781231,5.7813652 0 0 0 -5.77833,5.78124 5.7781231,5.7813652 0 0 0 3.66314,5.36787 9.2286524,9.2338306 0 0 0 -2.53796,0.99887 9.2286524,9.2338306 0 0 0 -4.6143,7.99663 h 18.45719 a 9.2286524,9.2338306 0 0 0 -4.6143,-7.99663 9.2286524,9.2338306 0 0 0 -2.49113,-0.98459 5.7781231,5.7813652 0 0 0 3.69369,-5.38215 5.7781231,5.7813652 0 0 0 -5.778,-5.78124 z"
           id="path34" /></g></g><g
       id="g53"
       style="display:inline"
       inkscape:label="links"><path
         style="font-variation-settings:normal;opacity:1;vector-effect:none;fill:#999999;fill-opacity:1;fill-rule:evenodd;stroke:#666666;stroke-width:0.365;stroke-linecap:butt;stroke-linejoin:miter;stroke-miterlimit:4;stroke-dasharray:2.19, 0.365;stroke-dashoffset:0;stroke-opacity:1;-inkscape-stroke:none;stop-color:#000000;stop-opacity:1"
         d="m 155.28103,234.94747 -14.36821,14.1354"
         id="path50"
         inkscape:connector-type="polyline"
         inkscape:connector-curvature="0"
         inkscape:connection-start="#path24"
         inkscape:connection-end="#path32" /><path
         style="font-variation-settings:normal;opacity:1;vector-effect:none;fill:#999999;fill-opacity:1;fill-rule:evenodd;stroke:#666666;stroke-width:0.365;stroke-linecap:butt;stroke-linejoin:miter;stroke-miterlimit:4;stroke-dasharray:2.19, 0.365;stroke-dashoffset:0;stroke-opacity:1;-inkscape-stroke:none;stop-color:#000000;stop-opacity:1"
         id="path48"
         inkscape:connector-type="polyline"
         inkscape:connector-curvature="0"
         inkscape:connection-start="#path24"
         inkscape:connection-end="#path33"
         d="M 151.6683,231.348 137.16802,216.90091" /><path
         style="font-variation-settings:normal;opacity:1;vector-effect:none;fill:#999999;fill-opacity:1;fill-rule:evenodd;stroke:#666666;stroke-width:0.365;stroke-linecap:butt;stroke-linejoin:miter;stroke-miterlimit:4;stroke-dasharray:2.19, 0.365;stroke-dashoffset:0;stroke-opacity:1;-inkscape-stroke:none;stop-color:#000000;stop-opacity:1"
         id="path49"
         inkscape:connector-type="polyline"
         inkscape:connector-curvature="0"
         inkscape:connection-start="#path32"
         inkscape:connection-end="#g34"
         d="m 133.38082,249.04114 -14.3258,-14.09367" /><path
         style="font-variation-settings:normal;opacity:1;fill:#999999;fill-opacity:1;fill-rule:evenodd;stroke:#666666;stroke-width:0.365;stroke-linecap:butt;stroke-linejoin:miter;stroke-miterlimit:4;stroke-dasharray:2.19, 0.365;stroke-dashoffset:0;stroke-opacity:1;stop-color:#000000;stop-opacity:1"
         d="m 131.23946,222.80772 -8.57171,8.54028"
         id="path43"
         inkscape:connector-type="polyline"
         inkscape:connector-curvature="0"
         inkscape:connection-end="#g34"
         inkscape:connection-start="#path33" /><path
         style="font-variation-settings:normal;opacity:1;vector-effect:none;fill:#999999;fill-opacity:1;fill-rule:evenodd;stroke:#666666;stroke-width:0.365;stroke-linecap:butt;stroke-linejoin:miter;stroke-miterlimit:4;stroke-dasharray:2.19, 0.365;stroke-dashoffset:0;stroke-opacity:1;-inkscape-stroke:none;stop-color:#000000;stop-opacity:1"
         d="m 95.009735,235.86443 -21.250526,8.18052"
         id="path46"
         inkscape:connector-type="polyline"
         inkscape:connector-curvature="0"
         inkscape:connection-start="#circle3"
         inkscape:connection-end="#path22" /><path
         style="font-variation-settings:normal;opacity:1;vector-effect:none;fill:#999999;fill-opacity:1;fill-rule:evenodd;stroke:#666666;stroke-width:0.365;stroke-linecap:butt;stroke-linejoin:miter;stroke-miterlimit:4;stroke-dasharray:2.19, 0.365;stroke-dashoffset:0;stroke-opacity:1;-inkscape-stroke:none;stop-color:#000000;stop-opacity:1"
         d="m 83.840938,224.26747 9.069084,7.84869"
         id="path47"
         inkscape:connector-type="polyline"
         inkscape:connector-curvature="0"
         inkscape:connection-start="#path23"
         inkscape:connection-end="#circle3" /><path
         style="font-variation-settings:normal;opacity:1;vector-effect:none;fill:#999999;fill-opacity:1;fill-rule:evenodd;stroke:#666666;stroke-width:0.365;stroke-linecap:butt;stroke-linejoin:miter;stroke-miterlimit:4;stroke-dasharray:2.19, 0.365;stroke-dashoffset:0;stroke-opacity:1;-inkscape-stroke:none;stop-color:#000000;stop-opacity:1"
         d="m 99.085485,235.23363 17.491495,-0.25065"
         id="path38"
         inkscape:connector-type="polyline"
         inkscape:connector-curvature="0"
         inkscape:connection-end="#g34"
         inkscape:connection-start="#circle3" /><path
         style="font-variation-settings:normal;opacity:1;vector-effect:none;fill:#999999;fill-opacity:1;fill-rule:evenodd;stroke:#666666;stroke-width:0.365;stroke-linecap:butt;stroke-linejoin:miter;stroke-miterlimit:4;stroke-dasharray:2.19, 0.365;stroke-dashoffset:0;stroke-opacity:1;-inkscape-stroke:none;stop-color:#000000;stop-opacity:1"
         d="m 74.904075,237.48075 2.040103,-11.69713"
         id="path45"
         inkscape:connector-type="polyline"
         inkscape:connector-curvature="0"
         inkscape:connection-start="#path22"
         inkscape:connection-end="#path23" /><path
         style="font-variation-settings:normal;opacity:1;vector-effect:none;fill:#999999;fill-opacity:1;fill-rule:evenodd;stroke:#666666;stroke-width:0.365;stroke-linecap:butt;stroke-linejoin:miter;stroke-miterlimit:4;stroke-dasharray:2.19, 0.365;stroke-dashoffset:0;stroke-opacity:1;-inkscape-stroke:none;stop-color:#000000;stop-opacity:1"
         d="m 121.52148,234.94747 h 31.29309"
         id="path51"
         inkscape:connector-type="polyline"
         inkscape:connector-curvature="0"
         inkscape:connection-start="#g34"
         inkscape:connection-end="#path24" /><path
         style="font-variation-settings:normal;opacity:1;vector-effect:none;fill:#999999;fill-opacity:1;fill-rule:evenodd;stroke:#666666;stroke-width:0.365;stroke-linecap:butt;stroke-linejoin:miter;stroke-miterlimit:4;stroke-dasharray:2.19, 0.365;stroke-dashoffset:0;stroke-opacity:1;-inkscape-stroke:none;stop-color:#000000;stop-opacity:1"
         d="m 137.16802,246.03685 0,-22.6327"
         id="path52"
         inkscape:connector-type="polyline"
         inkscape:connector-curvature="0"
         inkscape:connection-start="#path32"
         inkscape:connection-end="#path33" /></g></g></svg>
