<?xml version="1.0" encoding="UTF-8" standalone="no"?>
<!-- Created with Inkscape (http://www.inkscape.org/) -->

<svg
   width="129.5141mm"
   height="96.667328mm"
   viewBox="0 0 129.51409 96.667327"
   version="1.1"
   id="svg8"
   inkscape:version="1.3.2 (091e20ef0f, 2023-11-25)"
   sodipodi:docname="netbuild.svg"
   xmlns:inkscape="http://www.inkscape.org/namespaces/inkscape"
   xmlns:sodipodi="http://sodipodi.sourceforge.net/DTD/sodipodi-0.dtd"
   xmlns="http://www.w3.org/2000/svg"
   xmlns:svg="http://www.w3.org/2000/svg"
   xmlns:rdf="http://www.w3.org/1999/02/22-rdf-syntax-ns#"
   xmlns:cc="http://creativecommons.org/ns#"
   xmlns:dc="http://purl.org/dc/elements/1.1/">
  <defs
     id="defs2" />
  <sodipodi:namedview
     id="base"
     pagecolor="#ffffff"
     bordercolor="#666666"
     borderopacity="1.0"
     inkscape:pageopacity="0.0"
     inkscape:pageshadow="2"
     inkscape:zoom="1.9887478"
     inkscape:cx="281.33281"
     inkscape:cy="187.5552"
     inkscape:document-units="mm"
     inkscape:current-layer="g11"
     showgrid="false"
     showborder="true"
     width="200mm"
     showguides="true"
     inkscape:guide-bbox="true"
     inkscape:window-width="2158"
     inkscape:window-height="1408"
     inkscape:window-x="0"
     inkscape:window-y="30"
     inkscape:window-maximized="1"
     inkscape:showpageshadow="2"
     inkscape:pagecheckerboard="0"
     inkscape:deskcolor="#d1d1d1">
    <inkscape:grid
       type="xygrid"
       id="grid815"
       units="mm"
       spacingx="10"
       spacingy="10"
       empspacing="4"
       dotted="false"
       originx="0"
       originy="0"
       visible="false" />
  </sodipodi:namedview>
  <metadata
     id="metadata5">
    <rdf:RDF>
      <cc:Work
         rdf:about="">
        <dc:format>image/svg+xml</dc:format>
        <dc:type
           rdf:resource="http://purl.org/dc/dcmitype/StillImage" />
        <dc:title />
      </cc:Work>
    </rdf:RDF>
  </metadata>
  <g
     inkscape:label=" Layer [1]"
     inkscape:groupmode="layer"
     id="layer1"
     transform="matrix(0.48473645,0,0,0.48473645,7.935126,-75.58516)"
     style="display:inline;stroke-width:2.06298">
    <path
       id="path23-0"
       style="font-variation-settings:normal;fill:#5f8dd3;fill-opacity:1;stroke:#ffffff;stroke-width:0;stroke-linecap:butt;stroke-linejoin:miter;stroke-miterlimit:4;stroke-dasharray:none;stroke-dashoffset:0;stroke-opacity:1;stop-color:#000000"
       d="m 60.879637,226.47774 a 5.3721281,5.3751409 0 0 0 -5.37232,5.37503 5.3721281,5.3751409 0 0 0 3.405772,4.9907 8.5802089,8.5850208 0 0 0 -2.359649,0.92869 8.5802089,8.5850208 0 0 0 -4.290082,7.43475 h 17.160319 a 8.5802089,8.5850208 0 0 0 -4.290073,-7.43475 8.5802089,8.5850208 0 0 0 -2.316102,-0.91541 5.3721281,5.3751409 0 0 0 3.434178,-5.00398 5.3721281,5.3751409 0 0 0 -5.372043,-5.37503 z" />
    <path
       id="path1"
       style="font-variation-settings:normal;fill:#ff8080;fill-opacity:1;stroke:#ffffff;stroke-width:0;stroke-linecap:butt;stroke-linejoin:miter;stroke-miterlimit:4;stroke-dasharray:none;stroke-dashoffset:0;stroke-opacity:1;stop-color:#000000"
       d="m 83.592479,226.47774 a 5.3721281,5.3751409 0 0 0 -5.37232,5.37503 5.3721281,5.3751409 0 0 0 3.405773,4.9907 8.5802089,8.5850208 0 0 0 -2.35965,0.92869 8.5802089,8.5850208 0 0 0 -4.290082,7.43475 h 17.160319 a 8.5802089,8.5850208 0 0 0 -4.290073,-7.43475 8.5802089,8.5850208 0 0 0 -2.316102,-0.91541 5.3721281,5.3751409 0 0 0 3.434178,-5.00398 5.3721281,5.3751409 0 0 0 -5.372043,-5.37503 z" />
    <path
       id="path2"
       style="font-variation-settings:normal;fill:#5f8dd3;fill-opacity:1;stroke:#ffffff;stroke-width:0;stroke-linecap:butt;stroke-linejoin:miter;stroke-miterlimit:4;stroke-dasharray:none;stroke-dashoffset:0;stroke-opacity:1;stop-color:#000000"
       d="m 106.30532,226.47774 a 5.3721281,5.3751409 0 0 0 -5.37231,5.37503 5.3721281,5.3751409 0 0 0 3.40577,4.9907 8.5802089,8.5850208 0 0 0 -2.35965,0.92869 8.5802089,8.5850208 0 0 0 -4.290084,7.43475 h 17.160304 a 8.5802089,8.5850208 0 0 0 -4.29007,-7.43475 8.5802089,8.5850208 0 0 0 -2.3161,-0.91541 5.3721281,5.3751409 0 0 0 3.43418,-5.00398 5.3721281,5.3751409 0 0 0 -5.37204,-5.37503 z" />
    <path
       id="path3"
       style="font-variation-settings:normal;fill:#5f8dd3;fill-opacity:1;stroke:#ffffff;stroke-width:0;stroke-linecap:butt;stroke-linejoin:miter;stroke-miterlimit:4;stroke-dasharray:none;stroke-dashoffset:0;stroke-opacity:1;stop-color:#000000"
       d="m 174.44385,226.47774 a 5.3721281,5.3751409 0 0 0 -5.37232,5.37503 5.3721281,5.3751409 0 0 0 3.40577,4.9907 8.5802089,8.5850208 0 0 0 -2.35965,0.92869 8.5802089,8.5850208 0 0 0 -4.29008,7.43475 h 17.16032 a 8.5802089,8.5850208 0 0 0 -4.29008,-7.43475 8.5802089,8.5850208 0 0 0 -2.3161,-0.91541 5.3721281,5.3751409 0 0 0 3.43418,-5.00398 5.3721281,5.3751409 0 0 0 -5.37204,-5.37503 z" />
    <path
       id="path4"
       style="font-variation-settings:normal;fill:#ff8080;fill-opacity:1;stroke:#ffffff;stroke-width:0;stroke-linecap:butt;stroke-linejoin:miter;stroke-miterlimit:4;stroke-dasharray:none;stroke-dashoffset:0;stroke-opacity:1;stop-color:#000000"
       d="m 151.73101,226.47774 a 5.3721281,5.3751409 0 0 0 -5.37232,5.37503 5.3721281,5.3751409 0 0 0 3.40577,4.9907 8.5802089,8.5850208 0 0 0 -2.35965,0.92869 8.5802089,8.5850208 0 0 0 -4.29008,7.43475 h 17.16031 a 8.5802089,8.5850208 0 0 0 -4.29007,-7.43475 8.5802089,8.5850208 0 0 0 -2.3161,-0.91541 5.3721281,5.3751409 0 0 0 3.43418,-5.00398 5.3721281,5.3751409 0 0 0 -5.37204,-5.37503 z" />
    <path
       id="path5"
       style="font-variation-settings:normal;fill:#b3b3b3;fill-opacity:1;stroke:#ffffff;stroke-width:0;stroke-linecap:butt;stroke-linejoin:miter;stroke-miterlimit:4;stroke-dasharray:none;stroke-dashoffset:0;stroke-opacity:1;stop-color:#000000"
       d="m 129.01816,226.47774 a 5.3721281,5.3751409 0 0 0 -5.37232,5.37503 5.3721281,5.3751409 0 0 0 3.40578,4.9907 8.5802089,8.5850208 0 0 0 -2.35965,0.92869 8.5802089,8.5850208 0 0 0 -4.29008,7.43475 h 17.16031 a 8.5802089,8.5850208 0 0 0 -4.29007,-7.43475 8.5802089,8.5850208 0 0 0 -2.3161,-0.91541 5.3721281,5.3751409 0 0 0 3.43418,-5.00398 5.3721281,5.3751409 0 0 0 -5.37205,-5.37503 z" />
  </g>
  <g
     inkscape:label="hexagon [2-4]"
     inkscape:groupmode="layer"
     id="g11"
     transform="matrix(0.48473645,0,0,0.48473645,8.1445322,-89.084234)"
     style="display:inline;stroke-width:2.06298">
    <g
       id="g64"
       inkscape:label="links [3]"
       style="display:inline;fill:none;fill-opacity:1;stroke:#000000;stroke-width:0.818743;stroke-dasharray:none;stroke-opacity:1;marker-start:none;marker-end:none"
       inkscape:groupmode="layer">
      <path
         style="fill:none;fill-opacity:1;stroke:#000000;stroke-width:0.818743;stroke-linecap:butt;stroke-linejoin:miter;stroke-dasharray:none;stroke-opacity:1;marker-start:none;marker-end:none"
         d="M 81.026975,255.85105 H 157.44534 L 138.34075,222.76092"
         id="path57" />
      <path
         style="fill:none;fill-opacity:1;stroke:#000000;stroke-width:0.818743;stroke-linecap:butt;stroke-linejoin:miter;stroke-dasharray:none;stroke-opacity:1;marker-start:none;marker-end:none"
         d="m 138.34075,222.76092 h -38.20918 l -19.104595,33.09013 19.104595,33.09012"
         id="path58" />
      <path
         style="fill:none;fill-opacity:1;stroke:#000000;stroke-width:0.818743;stroke-linecap:butt;stroke-linejoin:miter;stroke-dasharray:none;stroke-opacity:1;marker-start:none;marker-end:none"
         d="m 100.13157,288.94117 h 38.20918 l 19.10459,-33.09012"
         id="path59" />
      <path
         style="fill:none;fill-opacity:1;stroke:#000000;stroke-width:0.818743;stroke-linecap:butt;stroke-linejoin:miter;stroke-dasharray:none;stroke-opacity:1;marker-start:none;marker-end:none"
         d="M 138.34075,288.94117 100.13157,222.76092"
         id="path60" />
      <path
         style="fill:none;fill-opacity:1;stroke:#000000;stroke-width:0.818743;stroke-linecap:butt;stroke-linejoin:miter;stroke-dasharray:none;stroke-opacity:1;marker-start:none;marker-end:none"
         d="m 100.13157,222.76092 v 66.18025 l 38.20918,-66.18025 v 66.18025"
         id="path61" />
      <path
         style="fill:none;fill-opacity:1;stroke:#000000;stroke-width:0.818743;stroke-linecap:butt;stroke-linejoin:miter;stroke-dasharray:none;stroke-opacity:1;marker-start:none;marker-end:none"
         d="M 138.34075,288.94117 81.026975,255.85105 138.34076,222.76093"
         id="path62" />
      <path
         style="fill:none;fill-opacity:1;stroke:#000000;stroke-width:0.818743;stroke-linecap:butt;stroke-linejoin:miter;stroke-dasharray:none;stroke-opacity:1;marker-start:none;marker-end:none"
         d="M 157.44534,255.85105 100.13156,222.76093"
         id="path63" />
      <path
         style="fill:none;fill-opacity:1;stroke:#000000;stroke-width:0.818743;stroke-linecap:butt;stroke-linejoin:miter;stroke-dasharray:none;stroke-opacity:1;marker-start:none;marker-end:none"
         d="m 100.13157,288.94117 57.31377,-33.09012"
         id="path64" />
    </g>
    <g
       id="g72"
       inkscape:label="links [4]"
       style="display:inline;fill:none;fill-opacity:1;stroke:#000000;stroke-width:0.818743;stroke-dasharray:none;stroke-opacity:1;marker-start:none;marker-end:none"
       inkscape:groupmode="layer">
      <path
         style="font-variation-settings:normal;opacity:1;vector-effect:none;fill:none;fill-opacity:1;stroke:#ff2a2a;stroke-width:0.818743;stroke-linecap:butt;stroke-linejoin:miter;stroke-miterlimit:4;stroke-dasharray:none;stroke-dashoffset:0;stroke-opacity:1;-inkscape-stroke:none;marker-start:none;marker-end:none;stop-color:#000000;stop-opacity:1"
         d="M 157.44534,255.85105 138.34075,222.76092"
         id="path75" />
      <path
         style="fill:none;fill-opacity:1;stroke:#2a2aff;stroke-width:0.818743;stroke-linecap:butt;stroke-linejoin:miter;stroke-dasharray:none;stroke-opacity:1;marker-start:none;marker-end:none"
         d="M 81.026975,255.85105 H 157.44534"
         id="path65" />
      <path
         style="fill:none;fill-opacity:1;stroke:#ff2a2a;stroke-width:0.818743;stroke-linecap:butt;stroke-linejoin:miter;stroke-dasharray:none;stroke-opacity:1;marker-start:none;marker-end:none"
         d="m 81.026975,255.85105 19.104595,33.09012"
         id="path74" />
      <path
         style="font-variation-settings:normal;opacity:1;vector-effect:none;fill:none;fill-opacity:1;stroke:#ff2a2a;stroke-width:0.818743;stroke-linecap:butt;stroke-linejoin:miter;stroke-miterlimit:4;stroke-dasharray:none;stroke-dashoffset:0;stroke-opacity:1;-inkscape-stroke:none;marker-start:none;marker-end:none;stop-color:#000000;stop-opacity:1"
         d="M 138.34075,222.76092 H 100.13157 L 81.026975,255.85105"
         id="path66" />
      <path
         style="font-variation-settings:normal;opacity:1;vector-effect:none;fill:none;fill-opacity:1;stroke:#ff2a2a;stroke-width:0.818743;stroke-linecap:butt;stroke-linejoin:miter;stroke-miterlimit:4;stroke-dasharray:none;stroke-dashoffset:0;stroke-opacity:1;-inkscape-stroke:none;marker-start:none;marker-end:none;stop-color:#000000;stop-opacity:1"
         d="m 138.34075,288.94117 19.10459,-33.09012"
         id="path73" />
      <path
         style="fill:none;fill-opacity:1;stroke:#2a2aff;stroke-width:0.818743;stroke-linecap:butt;stroke-linejoin:miter;stroke-dasharray:none;stroke-opacity:1;marker-start:none;marker-end:none"
         d="m 100.13157,288.94117 h 38.20918"
         id="path67" />
      <path
         style="fill:none;fill-opacity:1;stroke:#2a2aff;stroke-width:0.818743;stroke-linecap:butt;stroke-linejoin:miter;stroke-dasharray:none;stroke-opacity:1;marker-start:none;marker-end:none"
         d="M 138.34075,288.94117 100.13157,222.76092"
         id="path68" />
      <path
         style="font-variation-settings:normal;opacity:1;vector-effect:none;fill:none;fill-opacity:1;stroke:#ff2a2a;stroke-width:0.818743;stroke-linecap:butt;stroke-linejoin:miter;stroke-miterlimit:4;stroke-dasharray:none;stroke-dashoffset:0;stroke-opacity:1;-inkscape-stroke:none;marker-start:none;marker-end:none;stop-color:#000000;stop-opacity:1"
         d="m 138.34075,222.76092 v 66.18025"
         id="path78" />
      <path
         style="font-variation-settings:normal;opacity:1;vector-effect:none;fill:none;fill-opacity:1;stroke:#ff2a2a;stroke-width:0.818743;stroke-linecap:butt;stroke-linejoin:miter;stroke-miterlimit:4;stroke-dasharray:none;stroke-dashoffset:0;stroke-opacity:1;-inkscape-stroke:none;marker-start:none;marker-end:none;stop-color:#000000;stop-opacity:1"
         d="m 100.13157,288.94117 38.20918,-66.18025"
         id="path77" />
      <path
         style="fill:none;fill-opacity:1;stroke:#2a2aff;stroke-width:0.818743;stroke-linecap:butt;stroke-linejoin:miter;stroke-dasharray:none;stroke-opacity:1;marker-start:none;marker-end:none"
         d="m 100.13157,222.76092 v 66.18025"
         id="path69" />
      <path
         style="font-variation-settings:normal;opacity:1;vector-effect:none;fill:none;fill-opacity:1;stroke:#ff2a2a;stroke-width:0.818743;stroke-linecap:butt;stroke-linejoin:miter;stroke-miterlimit:4;stroke-dasharray:none;stroke-dashoffset:0;stroke-opacity:1;-inkscape-stroke:none;marker-start:none;marker-end:none;stop-color:#000000;stop-opacity:1"
         d="M 81.026975,255.85105 138.34076,222.76093"
         id="path76" />
      <path
         style="font-variation-settings:normal;opacity:1;vector-effect:none;fill:none;fill-opacity:1;stroke:#ff2a2a;stroke-width:0.818743;stroke-linecap:butt;stroke-linejoin:miter;stroke-miterlimit:4;stroke-dasharray:none;stroke-dashoffset:0;stroke-opacity:1;-inkscape-stroke:none;marker-start:none;marker-end:none;stop-color:#000000;stop-opacity:1"
         d="M 138.34075,288.94117 81.026975,255.85105"
         id="path70" />
      <path
         style="font-variation-settings:normal;opacity:1;vector-effect:none;fill:none;fill-opacity:1;stroke:#ff2a2a;stroke-width:0.818743;stroke-linecap:butt;stroke-linejoin:miter;stroke-miterlimit:4;stroke-dasharray:none;stroke-dashoffset:0;stroke-opacity:1;-inkscape-stroke:none;marker-start:none;marker-end:none;stop-color:#000000;stop-opacity:1"
         d="M 157.44534,255.85105 100.13156,222.76093"
         id="path71" />
      <path
         style="font-variation-settings:normal;opacity:1;vector-effect:none;fill:none;fill-opacity:1;stroke:#ff2a2a;stroke-width:0.818743;stroke-linecap:butt;stroke-linejoin:miter;stroke-miterlimit:4;stroke-dasharray:none;stroke-dashoffset:0;stroke-opacity:1;-inkscape-stroke:none;marker-start:none;marker-end:none;stop-color:#000000;stop-opacity:1"
         d="m 100.13157,288.94117 57.31377,-33.09012"
         id="path72" />
    </g>
    <g
       id="g13"
       inkscape:label="people"
       style="stroke-width:2.06298"
       transform="translate(0,-9.6368628)">
      <path
         id="path6"
         style="font-variation-settings:normal;fill:#5f8dd3;fill-opacity:1;stroke:#ffffff;stroke-width:0;stroke-linecap:butt;stroke-linejoin:miter;stroke-miterlimit:4;stroke-dasharray:none;stroke-dashoffset:0;stroke-opacity:1;stop-color:#000000"
         d="m 100.17196,288.10767 a 6.0064755,6.009844 0 0 0 -6.006696,6.00972 6.0064755,6.009844 0 0 0 3.80793,5.58001 9.5933703,9.5987504 0 0 0 -2.63828,1.03835 9.5933703,9.5987504 0 0 0 -4.79666,8.31265 h 19.186636 a 9.5933703,9.5987504 0 0 0 -4.79665,-8.31265 9.5933703,9.5987504 0 0 0 -2.58959,-1.02351 6.0064755,6.009844 0 0 0 3.83969,-5.59485 6.0064755,6.009844 0 0 0 -6.00638,-6.00972 z" />
      <path
         id="path7"
         style="font-variation-settings:normal;fill:#ff8080;fill-opacity:1;stroke:#ffffff;stroke-width:0;stroke-linecap:butt;stroke-linejoin:miter;stroke-miterlimit:4;stroke-dasharray:none;stroke-dashoffset:0;stroke-opacity:1;stop-color:#000000"
         d="m 81.067362,255.01755 a 6.0064755,6.009844 0 0 0 -6.00669,6.00972 6.0064755,6.009844 0 0 0 3.80793,5.58001 9.5933703,9.5987504 0 0 0 -2.63828,1.03835 9.5933703,9.5987504 0 0 0 -4.79666,8.31265 h 19.18663 a 9.5933703,9.5987504 0 0 0 -4.79665,-8.31265 9.5933703,9.5987504 0 0 0 -2.58959,-1.02351 6.0064755,6.009844 0 0 0 3.83969,-5.59485 6.0064755,6.009844 0 0 0 -6.00638,-6.00972 z" />
      <path
         id="path8"
         style="font-variation-settings:normal;fill:#5f8dd3;fill-opacity:1;stroke:#ffffff;stroke-width:0;stroke-linecap:butt;stroke-linejoin:miter;stroke-miterlimit:4;stroke-dasharray:none;stroke-dashoffset:0;stroke-opacity:1;stop-color:#000000"
         d="m 100.17194,221.92742 a 6.0064755,6.009844 0 0 0 -6.006664,6.00972 6.0064755,6.009844 0 0 0 3.807929,5.58001 9.5933703,9.5987504 0 0 0 -2.63828,1.03835 9.5933703,9.5987504 0 0 0 -4.796659,8.31265 h 19.186604 a 9.5933703,9.5987504 0 0 0 -4.79665,-8.31265 9.5933703,9.5987504 0 0 0 -2.58959,-1.02351 6.0064755,6.009844 0 0 0 3.83969,-5.59485 6.0064755,6.009844 0 0 0 -6.00638,-6.00972 z" />
      <path
         id="path9"
         style="font-variation-settings:normal;fill:#5f8dd3;fill-opacity:1;stroke:#ffffff;stroke-width:0;stroke-linecap:butt;stroke-linejoin:miter;stroke-miterlimit:4;stroke-dasharray:none;stroke-dashoffset:0;stroke-opacity:1;stop-color:#000000"
         d="m 138.38114,288.10767 a 6.0064755,6.009844 0 0 0 -6.00669,6.00972 6.0064755,6.009844 0 0 0 3.80793,5.58001 9.5933703,9.5987504 0 0 0 -2.63828,1.03835 9.5933703,9.5987504 0 0 0 -4.79666,8.31265 h 19.18663 a 9.5933703,9.5987504 0 0 0 -4.79665,-8.31265 9.5933703,9.5987504 0 0 0 -2.58959,-1.02351 6.0064755,6.009844 0 0 0 3.83969,-5.59485 6.0064755,6.009844 0 0 0 -6.00638,-6.00972 z" />
      <path
         id="path10"
         style="font-variation-settings:normal;fill:#ff8080;fill-opacity:1;stroke:#ffffff;stroke-width:0;stroke-linecap:butt;stroke-linejoin:miter;stroke-miterlimit:4;stroke-dasharray:none;stroke-dashoffset:0;stroke-opacity:1;stop-color:#000000"
         d="m 157.48573,255.01755 a 6.0064755,6.009844 0 0 0 -6.00669,6.00972 6.0064755,6.009844 0 0 0 3.80793,5.58001 9.5933703,9.5987504 0 0 0 -2.63828,1.03835 9.5933703,9.5987504 0 0 0 -4.79666,8.31265 h 19.18663 a 9.5933703,9.5987504 0 0 0 -4.79665,-8.31265 9.5933703,9.5987504 0 0 0 -2.58959,-1.02351 6.0064755,6.009844 0 0 0 3.83969,-5.59485 6.0064755,6.009844 0 0 0 -6.00638,-6.00972 z" />
      <path
         id="path11"
         style="font-variation-settings:normal;fill:#b3b3b3;fill-opacity:1;stroke:#ffffff;stroke-width:0;stroke-linecap:butt;stroke-linejoin:miter;stroke-miterlimit:4;stroke-dasharray:none;stroke-dashoffset:0;stroke-opacity:1;stop-color:#000000"
         d="m 138.38114,221.92742 a 6.0064755,6.009844 0 0 0 -6.00669,6.00972 6.0064755,6.009844 0 0 0 3.80793,5.58001 9.5933703,9.5987504 0 0 0 -2.63828,1.03835 9.5933703,9.5987504 0 0 0 -4.79666,8.31265 h 19.18663 a 9.5933703,9.5987504 0 0 0 -4.79665,-8.31265 9.5933703,9.5987504 0 0 0 -2.58959,-1.02351 6.0064755,6.009844 0 0 0 3.83969,-5.59485 6.0064755,6.009844 0 0 0 -6.00638,-6.00972 z" />
    </g>
  </g>
  <g
     id="g32"
     inkscape:label="grouped [5]"
     inkscape:groupmode="layer"
     style="display:inline;stroke-width:2.06298"
     transform="matrix(0.48473645,0,0,0.48473645,7.935126,10.213191)">
    <g
       id="g31"
       inkscape:label="g31"
       style="stroke-width:2.06298"
       transform="translate(0,-9.6368628)">
      <ellipse
         style="fill:#000000;fill-opacity:0.12;stroke:none;stroke-width:0.818743;stroke-dasharray:none;stroke-opacity:1;-inkscape-stroke:none;marker-start:none;marker-end:none"
         id="path29"
         cx="87.211784"
         cy="40.32798"
         rx="28.977037"
         ry="33.633419" />
      <ellipse
         style="fill:#000000;fill-opacity:0.12;stroke:none;stroke-width:0.818743;stroke-dasharray:none;stroke-opacity:1;-inkscape-stroke:none;marker-start:none;marker-end:none"
         id="path30"
         cx="150.86499"
         cy="42.885937"
         rx="14.416213"
         ry="28.701603" />
      <circle
         style="fill:#000000;fill-opacity:0.12;stroke:none;stroke-width:0.818743;stroke-dasharray:none;stroke-opacity:1;-inkscape-stroke:none;marker-start:none;marker-end:none"
         id="path31"
         cx="118.94536"
         cy="99.872437"
         r="16.142971" />
    </g>
    <g
       id="g29"
       style="display:inline;fill:none;fill-opacity:1;stroke:#000000;stroke-width:0.818743;stroke-dasharray:none;stroke-opacity:1;marker-start:none;marker-end:none"
       transform="translate(0,-9.6368628)">
      <path
         style="font-variation-settings:normal;opacity:1;vector-effect:none;fill:none;fill-opacity:1;stroke:#ff2a2a;stroke-width:0.818743;stroke-linecap:butt;stroke-linejoin:miter;stroke-miterlimit:4;stroke-dasharray:none;stroke-dashoffset:0;stroke-opacity:1;-inkscape-stroke:none;marker-start:none;marker-end:none;stop-color:#000000;stop-opacity:1"
         d="m 68.454793,38.963028 c 3.725118,22.411034 22.974604,42.325036 50.490567,60.909408 L 92.712723,57.615154"
         id="path18"
         sodipodi:nodetypes="ccc" />
      <path
         style="font-variation-settings:normal;opacity:1;vector-effect:none;fill:none;fill-opacity:1;stroke:#ff2a2a;stroke-width:0.818743;stroke-linecap:butt;stroke-linejoin:miter;stroke-miterlimit:4;stroke-dasharray:none;stroke-dashoffset:0;stroke-opacity:1;-inkscape-stroke:none;marker-start:none;marker-end:none;stop-color:#000000;stop-opacity:1"
         d="M 118.94536,99.872434 150.86499,54.499157"
         id="path19" />
      <path
         style="font-variation-settings:normal;opacity:1;vector-effect:none;fill:none;fill-opacity:1;stroke:#ff2a2a;stroke-width:0.818743;stroke-linecap:butt;stroke-linejoin:miter;stroke-miterlimit:4;stroke-dasharray:none;stroke-dashoffset:0;stroke-opacity:1;-inkscape-stroke:none;marker-start:none;marker-end:none;stop-color:#000000;stop-opacity:1"
         d="M 150.86499,27.121649 118.94536,99.872434 92.712723,20.3109"
         id="path20" />
      <path
         style="font-variation-settings:normal;opacity:1;vector-effect:none;fill:none;fill-opacity:1;stroke:#2a2aff;stroke-width:0.818743;stroke-linecap:butt;stroke-linejoin:miter;stroke-miterlimit:4;stroke-dasharray:none;stroke-dashoffset:0;stroke-opacity:1;-inkscape-stroke:none;marker-start:none;marker-end:none;stop-color:#000000;stop-opacity:1"
         d="M 68.454793,38.963028 92.712721,20.3109"
         id="path21" />
      <path
         style="font-variation-settings:normal;opacity:1;vector-effect:none;fill:none;fill-opacity:1;stroke:#2a2aff;stroke-width:0.818743;stroke-linecap:butt;stroke-linejoin:miter;stroke-miterlimit:4;stroke-dasharray:none;stroke-dashoffset:0;stroke-opacity:1;-inkscape-stroke:none;marker-start:none;marker-end:none;stop-color:#000000;stop-opacity:1"
         d="M 92.712721,20.3109 V 57.615153"
         id="path22" />
      <path
         style="font-variation-settings:normal;opacity:1;vector-effect:none;fill:none;fill-opacity:1;stroke:#2a2aff;stroke-width:0.818743;stroke-linecap:butt;stroke-linejoin:miter;stroke-miterlimit:4;stroke-dasharray:none;stroke-dashoffset:0;stroke-opacity:1;-inkscape-stroke:none;marker-start:none;marker-end:none;stop-color:#000000;stop-opacity:1"
         d="M 92.712721,57.615153 68.454793,38.963028"
         id="path23" />
      <path
         style="font-variation-settings:normal;opacity:1;vector-effect:none;fill:none;fill-opacity:1;stroke:#2a2aff;stroke-width:0.818743;stroke-linecap:butt;stroke-linejoin:miter;stroke-miterlimit:4;stroke-dasharray:none;stroke-dashoffset:0;stroke-opacity:1;-inkscape-stroke:none;marker-start:none;marker-end:none;stop-color:#000000;stop-opacity:1"
         d="M 150.86499,54.499157 V 27.121649"
         id="path32" />
      <path
         style="font-variation-settings:normal;opacity:1;vector-effect:none;fill:none;fill-opacity:1;stroke:#ff2a2a;stroke-width:0.818743;stroke-linecap:butt;stroke-linejoin:miter;stroke-miterlimit:4;stroke-dasharray:none;stroke-dashoffset:0;stroke-opacity:1;-inkscape-stroke:none;marker-start:none;marker-end:none;stop-color:#000000;stop-opacity:1"
         d="M 92.712719,57.615153 150.86499,54.499157"
         id="path24" />
      <path
         style="font-variation-settings:normal;opacity:1;vector-effect:none;fill:none;fill-opacity:1;stroke:#ff2a2a;stroke-width:0.818743;stroke-linecap:butt;stroke-linejoin:miter;stroke-miterlimit:4;stroke-dasharray:none;stroke-dashoffset:0;stroke-opacity:1;-inkscape-stroke:none;marker-start:none;marker-end:none;stop-color:#000000;stop-opacity:1"
         d="M 92.712721,20.3109 150.86499,27.121649 92.712719,57.615153"
         id="path25" />
      <path
         style="font-variation-settings:normal;opacity:1;vector-effect:none;fill:none;fill-opacity:1;stroke:#ff2a2a;stroke-width:0.818743;stroke-linecap:butt;stroke-linejoin:miter;stroke-miterlimit:4;stroke-dasharray:none;stroke-dashoffset:0;stroke-opacity:1;-inkscape-stroke:none;marker-start:none;marker-end:none;stop-color:#000000;stop-opacity:1"
         d="M 92.712721,20.3109 150.86499,54.499157"
         id="path26" />
      <path
         style="font-variation-settings:normal;opacity:1;vector-effect:none;fill:none;fill-opacity:1;stroke:#ff2a2a;stroke-width:0.818743;stroke-linecap:butt;stroke-linejoin:miter;stroke-miterlimit:4;stroke-dasharray:none;stroke-dashoffset:0;stroke-opacity:1;-inkscape-stroke:none;marker-start:none;marker-end:none;stop-color:#000000;stop-opacity:1"
         d="M 68.454793,38.963028 150.86499,27.121649"
         id="path27" />
      <path
         style="font-variation-settings:normal;opacity:1;vector-effect:none;fill:none;fill-opacity:1;stroke:#ff2a2a;stroke-width:0.818743;stroke-linecap:butt;stroke-linejoin:miter;stroke-miterlimit:4;stroke-dasharray:none;stroke-dashoffset:0;stroke-opacity:1;-inkscape-stroke:none;marker-start:none;marker-end:none;stop-color:#000000;stop-opacity:1"
         d="M 150.86499,54.499157 68.454793,38.963028"
         id="path28" />
    </g>
    <g
       id="g28"
       inkscape:label="people"
       style="display:inline;stroke-width:2.06298"
       transform="translate(0,-9.6368628)">
      <path
         id="path12"
         style="font-variation-settings:normal;fill:#5f8dd3;fill-opacity:1;stroke:#ffffff;stroke-width:0;stroke-linecap:butt;stroke-linejoin:miter;stroke-miterlimit:4;stroke-dasharray:none;stroke-dashoffset:0;stroke-opacity:1;stop-color:#000000"
         d="m 68.489787,29.888944 a 5.2054788,5.2083981 0 0 0 -5.205661,5.20829 5.2054788,5.2083981 0 0 0 3.300118,4.835885 8.3140413,8.318704 0 0 0 -2.286447,0.89988 8.3140413,8.318704 0 0 0 -4.156999,7.204113 H 76.768792 A 8.3140413,8.318704 0 0 0 72.6118,40.832999 8.3140413,8.318704 0 0 0 70.367537,39.94598 a 5.2054788,5.2083981 0 0 0 3.327655,-4.848746 5.2054788,5.2083981 0 0 0 -5.205405,-5.20829 z" />
      <path
         id="path13"
         style="font-variation-settings:normal;fill:#ff8080;fill-opacity:1;stroke:#ffffff;stroke-width:0;stroke-linecap:butt;stroke-linejoin:miter;stroke-miterlimit:4;stroke-dasharray:none;stroke-dashoffset:0;stroke-opacity:1;stop-color:#000000"
         d="m 150.9,18.047565 a 5.2054788,5.2083981 0 0 0 -5.20567,5.208291 5.2054788,5.2083981 0 0 0 3.30012,4.835885 8.3140413,8.318704 0 0 0 -2.28645,0.89988 8.3140413,8.318704 0 0 0 -4.157,7.204112 h 16.62799 A 8.3140413,8.318704 0 0 0 155.022,28.991621 8.3140413,8.318704 0 0 0 152.77775,28.104602 5.2054788,5.2083981 0 0 0 156.10539,23.255856 5.2054788,5.2083981 0 0 0 150.9,18.047565 Z" />
      <path
         id="path14"
         style="font-variation-settings:normal;fill:#5f8dd3;fill-opacity:1;stroke:#ffffff;stroke-width:0;stroke-linecap:butt;stroke-linejoin:miter;stroke-miterlimit:4;stroke-dasharray:none;stroke-dashoffset:0;stroke-opacity:1;stop-color:#000000"
         d="m 92.74771,11.236817 a 5.2054788,5.2083981 0 0 0 -5.205641,5.20829 5.2054788,5.2083981 0 0 0 3.300121,4.835885 8.3140413,8.318704 0 0 0 -2.286451,0.89988 8.3140413,8.318704 0 0 0 -4.156998,7.204112 H 101.0267 a 8.3140413,8.318704 0 0 0 -4.156986,-7.204112 8.3140413,8.318704 0 0 0 -2.244254,-0.887019 5.2054788,5.2083981 0 0 0 3.327646,-4.848746 5.2054788,5.2083981 0 0 0 -5.205396,-5.20829 z" />
      <path
         id="path15"
         style="font-variation-settings:normal;fill:#5f8dd3;fill-opacity:1;stroke:#ffffff;stroke-width:0;stroke-linecap:butt;stroke-linejoin:miter;stroke-miterlimit:4;stroke-dasharray:none;stroke-dashoffset:0;stroke-opacity:1;stop-color:#000000"
         d="m 92.747723,48.54107 a 5.2054788,5.2083981 0 0 0 -5.205666,5.208291 5.2054788,5.2083981 0 0 0 3.300121,4.835885 8.3140413,8.318704 0 0 0 -2.28645,0.89988 8.3140413,8.318704 0 0 0 -4.156999,7.204112 h 16.627991 a 8.3140413,8.318704 0 0 0 -4.156994,-7.204112 8.3140413,8.318704 0 0 0 -2.244254,-0.887019 5.2054788,5.2083981 0 0 0 3.327647,-4.848746 5.2054788,5.2083981 0 0 0 -5.205396,-5.208291 z" />
      <path
         id="path16"
         style="font-variation-settings:normal;fill:#ff8080;fill-opacity:1;stroke:#ffffff;stroke-width:0;stroke-linecap:butt;stroke-linejoin:miter;stroke-miterlimit:4;stroke-dasharray:none;stroke-dashoffset:0;stroke-opacity:1;stop-color:#000000"
         d="m 150.89999,45.425074 a 5.2054788,5.2083981 0 0 0 -5.20566,5.20829 5.2054788,5.2083981 0 0 0 3.30012,4.835885 8.3140413,8.318704 0 0 0 -2.28645,0.89988 8.3140413,8.318704 0 0 0 -4.157,7.204113 h 16.62799 a 8.3140413,8.318704 0 0 0 -4.15699,-7.204113 8.3140413,8.318704 0 0 0 -2.24426,-0.887019 5.2054788,5.2083981 0 0 0 3.32765,-4.848746 5.2054788,5.2083981 0 0 0 -5.2054,-5.20829 z" />
      <path
         id="path17"
         style="font-variation-settings:normal;fill:#b3b3b3;fill-opacity:1;stroke:#ffffff;stroke-width:0;stroke-linecap:butt;stroke-linejoin:miter;stroke-miterlimit:4;stroke-dasharray:none;stroke-dashoffset:0;stroke-opacity:1;stop-color:#000000"
         d="m 118.98036,90.798356 a 5.2054788,5.2083981 0 0 0 -5.20567,5.208291 5.2054788,5.2083981 0 0 0 3.30013,4.835883 8.3140413,8.318704 0 0 0 -2.28646,0.89988 8.3140413,8.318704 0 0 0 -4.15699,7.20411 h 16.62798 a 8.3140413,8.318704 0 0 0 -4.15699,-7.20411 8.3140413,8.318704 0 0 0 -2.24425,-0.88702 5.2054788,5.2083981 0 0 0 3.32764,-4.848743 5.2054788,5.2083981 0 0 0 -5.20539,-5.208291 z" />
    </g>
  </g>
  <g
     id="g35"
     inkscape:groupmode="layer"
     inkscape:label="legend">
    <path
       id="path33"
       style="font-variation-settings:normal;display:inline;fill:#5f8dd3;fill-opacity:1;stroke:#ffffff;stroke-width:0;stroke-linecap:butt;stroke-linejoin:miter;stroke-miterlimit:4;stroke-dasharray:none;stroke-dashoffset:0;stroke-opacity:1;stop-color:#000000"
       d="m 111.27199,13.553845 a 1.3019716,1.3027017 0 0 0 -1.30201,1.302675 1.3019716,1.3027017 0 0 0 0.82541,1.209529 2.0794716,2.0806378 0 0 0 -0.57188,0.225074 2.0794716,2.0806378 0 0 0 -1.03973,1.801862 h 4.15892 a 2.0794716,2.0806378 0 0 0 -1.03973,-1.801862 2.0794716,2.0806378 0 0 0 -0.56132,-0.221855 1.3019716,1.3027017 0 0 0 0.8323,-1.212748 1.3019716,1.3027017 0 0 0 -1.30196,-1.302675 z" />
    <path
       id="path34"
       style="font-variation-settings:normal;display:inline;fill:#ff8080;fill-opacity:1;stroke:#ffffff;stroke-width:0;stroke-linecap:butt;stroke-linejoin:miter;stroke-miterlimit:4;stroke-dasharray:none;stroke-dashoffset:0;stroke-opacity:1;stop-color:#000000"
       d="m 111.27199,19.426103 a 1.3019716,1.3027017 0 0 0 -1.30201,1.30267 1.3019716,1.3027017 0 0 0 0.82541,1.209534 2.0794716,2.0806378 0 0 0 -0.57188,0.225073 2.0794716,2.0806378 0 0 0 -1.03973,1.801862 h 4.15892 a 2.0794716,2.0806378 0 0 0 -1.03973,-1.801862 2.0794716,2.0806378 0 0 0 -0.56132,-0.221859 1.3019716,1.3027017 0 0 0 0.8323,-1.212748 1.3019716,1.3027017 0 0 0 -1.30196,-1.30267 z" />
    <path
       id="path35"
       style="font-variation-settings:normal;display:inline;fill:#b3b3b3;fill-opacity:1;stroke:#ffffff;stroke-width:0;stroke-linecap:butt;stroke-linejoin:miter;stroke-miterlimit:4;stroke-dasharray:none;stroke-dashoffset:0;stroke-opacity:1;stop-color:#000000"
       d="m 111.27199,25.298355 a 1.3019716,1.3027017 0 0 0 -1.30201,1.302676 1.3019716,1.3027017 0 0 0 0.82541,1.209534 2.0794716,2.0806378 0 0 0 -0.57188,0.225072 2.0794716,2.0806378 0 0 0 -1.03973,1.801862 h 4.15892 a 2.0794716,2.0806378 0 0 0 -1.03973,-1.801862 2.0794716,2.0806378 0 0 0 -0.56132,-0.221859 1.3019716,1.3027017 0 0 0 0.8323,-1.212747 1.3019716,1.3027017 0 0 0 -1.30196,-1.302676 z" />
  </g>
</svg>
